<svg width="360" height="497" viewBox="0 0 360 497" fill="none" xmlns="http://www.w3.org/2000/svg">
<path d="M3.5 497H0.5C0.5 396.272 18.6377 301.604 51.5732 230.435C84.6777 158.897 128.867 119.5 176 119.5V122.5C80.8828 122.5 3.5 290.5 3.5 497Z" fill="#FFE400"/>
<path d="M241 31.5C241 54.9721 230.703 85 218 85C205.297 85 195 54.9721 195 31.5C195 8.0279 205.297 0 218 0C230.703 0 241 8.0279 241 31.5Z" fill="#121112"/>
<path d="M331.265 131.631C308.048 135.085 276.832 129.319 274.963 116.754C273.093 104.19 301.279 89.5858 324.496 86.1316C347.712 82.6775 357.168 91.6814 359.037 104.246C360.907 116.81 354.481 128.177 331.265 131.631Z" fill="#121112"/>
<path d="M228.378 220.924C220.075 198.97 219.086 167.241 230.967 162.748C242.848 158.254 263.101 182.699 271.404 204.653C279.707 226.608 272.914 237.759 261.033 242.252C249.152 246.746 236.68 242.879 228.378 220.924Z" fill="#121112"/>
<path d="M228 150C244.016 150 257 137.016 257 121C257 104.984 244.016 92 228 92C211.984 92 199 104.984 199 121C199 137.016 211.984 150 228 150Z" fill="#FFE400"/>
</svg>
