<svg width="839" height="715" viewBox="0 0 839 715" fill="none" xmlns="http://www.w3.org/2000/svg">
<path opacity="0.06" d="M687.961 116.83C691.891 119.48 693.261 124.6 693.761 129.32C695.891 149.39 687.611 169.26 688.161 189.43C688.601 205.48 694.581 220.79 700.481 235.72C710.541 261.19 715.781 288.85 717.811 316.16C719.841 343.47 722.811 371.91 737.471 395.01C740.801 400.24 744.681 405.1 747.941 410.36C751.361 415.86 754.071 421.76 757.091 427.48C765.989 444.373 777.46 459.781 791.091 473.15C795.091 477.05 799.331 480.83 804.431 483.08C807.718 484.506 811.257 485.26 814.839 485.298C818.422 485.336 821.975 484.656 825.291 483.3C832.131 480.47 837.891 474.09 838.171 466.69C838.421 460.07 834.471 454.1 830.511 448.8C817.09 430.844 801.656 414.484 784.511 400.04C781.401 397.42 778.121 394.71 776.511 390.97C774.701 386.66 775.441 381.77 775.211 377.1C774.841 369.65 771.941 362.58 770.211 355.32C763.211 325.83 775.651 293.63 765.531 265.06C763.281 258.71 759.941 252.64 759.151 245.95C758.591 241.27 759.751 236.04 762.681 232.53C765.425 229.376 766.96 225.35 767.011 221.17C767.011 220.31 767.011 219.46 766.911 218.62C765.691 205.53 764.481 192.38 765.141 179.25C765.801 166.12 768.411 152.92 774.471 141.25C777.611 135.2 781.671 129.54 783.611 123.01C786.731 112.44 783.851 101.01 779.201 91.01C775.571 83.19 770.731 75.74 763.971 70.38C751.411 60.43 732.611 59.28 718.861 67.51C708.721 73.57 701.781 83.76 696.151 94.15C692.111 101.74 687.901 108.17 687.961 116.83Z" fill="black"/>
<path d="M721.292 37.13C723.212 42.31 725.122 47.49 727.022 52.67C728.282 56.07 729.532 59.5 730.832 62.9C736.832 78.57 743.542 93.99 754.042 106.96C752.472 105.02 767.242 95.26 778.132 88.6C783.442 85.33 787.842 82.81 788.922 82.31C791.488 81.1503 794.115 80.1288 796.792 79.25C800.942 77.85 805.142 76.64 809.292 75.13C818.892 71.66 812.182 66.45 808.072 60.85C794.622 42.51 792.072 17.45 776.802 0.600006C771.201 11.24 762.342 19.808 751.522 25.05C751.312 25.16 751.092 25.26 750.872 25.35C741.802 29.59 731.781 31.42 722.401 34.97C721.891 35.16 721.302 35.43 721.132 35.97C721.068 36.364 721.124 36.7679 721.292 37.13Z" fill="#A1616A"/>
<path d="M747.401 407.55C751.746 413.774 754.449 420.993 755.262 428.539C756.075 436.085 754.971 443.714 752.051 450.72C751.313 452.678 750.164 454.454 748.681 455.93C746.794 457.405 744.595 458.431 742.251 458.93C722.391 464.58 701.191 463.47 680.851 459.93C673.961 458.87 667.189 457.145 660.631 454.78C650.561 450.93 641.571 444.78 632.691 438.64L613.911 425.7C607.831 421.51 601.701 417.3 594.911 414.36C584.511 409.87 572.991 408.58 561.661 408.59C551.929 408.602 542.22 409.529 532.661 411.36C526.291 412.59 518.661 413.86 514.181 409.21C511.621 406.58 510.861 402.73 510.361 399.1C508.383 384.976 508.42 370.643 510.471 356.53C510.522 355.343 510.953 354.203 511.701 353.28C512.407 352.681 513.266 352.29 514.181 352.15C523.031 350.15 531.911 354.3 540.511 357.15C558.381 363.09 577.571 363.8 595.751 368.69C614.831 373.82 632.751 383.53 652.471 385.5C661.871 386.44 671.311 385.62 680.731 385.83C689.471 386.02 697.621 389.04 706.181 389.4C722.681 390.13 737.031 393.01 747.401 407.55Z" fill="#A1616A"/>
<path opacity="0.06" d="M747.401 407.55C751.746 413.774 754.449 420.993 755.262 428.539C756.075 436.085 754.971 443.714 752.051 450.72C751.313 452.678 750.164 454.454 748.681 455.93C746.794 457.405 744.595 458.431 742.251 458.93C722.391 464.58 701.191 463.47 680.851 459.93C673.961 458.87 667.189 457.145 660.631 454.78C650.561 450.93 641.571 444.78 632.691 438.64L613.911 425.7C607.831 421.51 601.701 417.3 594.911 414.36C584.511 409.87 572.991 408.58 561.661 408.59C551.929 408.602 542.22 409.529 532.661 411.36C526.291 412.59 518.661 413.86 514.181 409.21C511.621 406.58 510.861 402.73 510.361 399.1C508.383 384.976 508.42 370.643 510.471 356.53C510.522 355.343 510.953 354.203 511.701 353.28C512.407 352.681 513.266 352.29 514.181 352.15C523.031 350.15 531.911 354.3 540.511 357.15C558.381 363.09 577.571 363.8 595.751 368.69C614.831 373.82 632.751 383.53 652.471 385.5C661.871 386.44 671.311 385.62 680.731 385.83C689.471 386.02 697.621 389.04 706.181 389.4C722.681 390.13 737.031 393.01 747.401 407.55Z" fill="black"/>
<path d="M731.261 386.41C731.731 388.62 732.151 390.96 731.491 393.12C730.673 395.244 729.29 397.104 727.491 398.5C710.491 413.72 686.201 416.87 663.491 419.34C657.341 420.01 651.081 420.68 644.991 419.57C639.441 418.57 634.261 416.12 629.151 413.7C618.151 408.49 607.091 403.22 597.661 395.56C588.411 388.06 580.991 378.46 571.411 371.39C560.521 363.39 547.131 358.81 537.411 349.39C530.384 342.61 525.712 333.758 524.081 324.13C522.981 317.56 523.341 310.85 524.081 304.23C524.871 296.62 526.141 288.88 529.761 282.14C533.951 274.34 540.991 268.45 548.421 263.61C564.141 253.39 582.651 247.05 601.421 247.21C627.421 247.44 651.421 262.57 670.081 279.56C689.819 297.555 705.793 319.283 717.081 343.49C723.454 357.199 728.213 371.602 731.261 386.41V386.41Z" fill="#464353"/>
<path opacity="0.06" d="M731.261 386.41C731.731 388.62 732.151 390.96 731.491 393.12C730.673 395.244 729.29 397.104 727.491 398.5C710.491 413.72 686.201 416.87 663.491 419.34C657.341 420.01 651.081 420.68 644.991 419.57C639.441 418.57 634.261 416.12 629.151 413.7C618.151 408.49 607.091 403.22 597.661 395.56C588.411 388.06 580.991 378.46 571.411 371.39C560.521 363.39 547.131 358.81 537.411 349.39C530.384 342.61 525.712 333.758 524.081 324.13C522.981 317.56 523.341 310.85 524.081 304.23C524.871 296.62 526.141 288.88 529.761 282.14C533.951 274.34 540.991 268.45 548.421 263.61C564.141 253.39 582.651 247.05 601.421 247.21C627.421 247.44 651.421 262.57 670.081 279.56C689.819 297.555 705.793 319.283 717.081 343.49C723.454 357.199 728.213 371.602 731.261 386.41V386.41Z" fill="black"/>
<path d="M687.961 116.83C691.891 119.48 693.261 124.6 693.761 129.32C695.891 149.39 687.611 169.26 688.161 189.43C688.601 205.48 694.581 220.79 700.481 235.72C710.541 261.19 715.781 288.85 717.811 316.16C719.841 343.47 722.811 371.91 737.471 395.01C740.801 400.24 744.681 405.1 747.941 410.36C751.361 415.86 754.071 421.76 757.091 427.48C765.989 444.373 777.46 459.781 791.091 473.15C795.091 477.05 799.331 480.83 804.431 483.08C807.718 484.506 811.257 485.26 814.839 485.298C818.422 485.336 821.975 484.656 825.291 483.3C832.131 480.47 837.891 474.09 838.171 466.69C838.421 460.07 834.471 454.1 830.511 448.8C817.09 430.844 801.656 414.484 784.511 400.04C781.401 397.42 778.121 394.71 776.511 390.97C774.701 386.66 775.441 381.77 775.211 377.1C774.841 369.65 771.941 362.58 770.211 355.32C763.211 325.83 775.651 293.63 765.531 265.06C763.281 258.71 759.941 252.64 759.151 245.95C758.591 241.27 759.751 236.04 762.681 232.53C765.425 229.376 766.96 225.35 767.011 221.17C767.011 220.31 767.011 219.46 766.911 218.62C765.691 205.53 764.481 192.38 765.141 179.25C765.801 166.12 768.411 152.92 774.471 141.25C777.611 135.2 781.671 129.54 783.611 123.01C786.731 112.44 783.851 101.01 779.201 91.01C775.571 83.19 770.731 75.74 763.971 70.38C751.411 60.43 732.611 59.28 718.861 67.51C708.721 73.57 701.781 83.76 696.151 94.15C692.111 101.74 687.901 108.17 687.961 116.83Z" fill="#A1616A"/>
<path d="M743.211 184.01C722.308 184.01 705.362 157.42 705.362 124.62C705.362 91.8198 722.308 65.23 743.211 65.23C764.115 65.23 781.062 91.8198 781.062 124.62C781.062 157.42 764.115 184.01 743.211 184.01Z" fill="#A1616A"/>
<path opacity="0.06" d="M750.872 25.35C750.872 25.49 750.872 25.62 750.872 25.76C752.682 41.36 767.682 40.64 771.182 65.22C772.562 74.85 787.182 76.63 796.792 79.22C800.942 77.82 805.142 76.61 809.292 75.1C818.892 71.63 812.182 66.42 808.072 60.82C794.622 42.48 792.072 17.42 776.802 0.570007C771.201 11.21 762.342 19.778 751.522 25.02C751.312 25.16 751.092 25.26 750.872 25.35Z" fill="black"/>
<path d="M725.271 23.42C718.081 23.07 711.171 25.89 704.531 28.66C678.201 39.66 651.651 50.75 628.121 66.9C616.521 74.9 605.771 83.98 595.041 93.09L550.951 130.55C542.481 137.74 533.951 145 527.151 153.8C523.149 159.227 519.498 164.906 516.221 170.8L509.681 181.95C507.002 186.314 504.662 190.878 502.681 195.6C499.321 204.21 498.071 214.25 491.291 220.54C486.741 224.77 480.471 226.49 474.911 229.28C469.351 232.07 463.911 236.97 464.001 243.19C464.001 247.19 466.421 250.79 468.241 254.39C472.011 261.913 473.591 270.343 472.801 278.72L544.901 223.62C547.771 221.43 550.771 219.17 554.301 218.43C558.881 217.43 563.551 219.16 567.971 220.72C602.816 233.008 639.845 237.876 676.681 235.01C692.971 233.73 709.511 230.8 723.771 222.83C731.661 218.43 738.641 212.6 745.571 206.83C754.221 199.59 762.901 192.33 770.571 184.05C772.571 181.84 774.651 179.41 775.161 176.45C775.541 174.31 775.071 172.13 774.891 169.97C773.631 154.8 786.231 142.17 790.071 127.44C791.777 120.494 791.541 113.213 789.387 106.393C787.234 99.5731 783.247 93.4764 777.861 88.77C769.271 96.29 769.581 109.5 770.581 120.87C771.931 136.18 767.651 143.77 769.001 159.09C763.561 158.89 764.551 162.39 762.231 157.46C759.911 152.53 759.461 146.97 759.021 141.54C757.415 121.9 755.465 102.293 753.171 82.72C752.031 72.93 750.731 63.16 749.481 53.38C748.721 47.43 748.821 41.87 745.681 36.59C741.321 29.28 733.911 23.83 725.271 23.42Z" fill="#FFE403"/>
<path d="M715.861 41.26C711.281 39.82 706.351 41.14 701.751 42.51C693.618 44.9233 685.531 47.4733 677.491 50.16C670.921 52.35 664.261 54.7 658.701 58.83C652.931 63.11 648.701 69.06 644.511 74.91C641.511 79.12 638.511 83.38 636.511 88.16C633.911 94.42 633.211 101.28 632.511 108.02C632.052 110.929 632.089 113.894 632.621 116.79C633.56 119.935 635.213 122.82 637.451 125.22C640.894 129.295 644.885 132.872 649.311 135.85C661.081 143.77 675.311 147.07 689.171 149.98C701.541 152.57 714.001 154.98 726.621 155.76C731.531 156.07 737.231 155.76 740.231 151.88C741.085 150.67 741.759 149.343 742.231 147.94C749.605 128.411 752.797 107.551 751.601 86.71C751.493 82.9113 750.905 79.1414 749.851 75.49C748.813 72.568 747.525 69.7409 746.001 67.04C742.211 59.87 738.221 52.45 731.691 47.65C724.861 42.65 716.011 41.07 707.541 41.39" fill="#A1616A"/>
<path opacity="0.06" d="M669.791 115.42C673.721 118.07 675.091 123.19 675.591 127.91C677.721 147.98 669.441 167.85 669.991 188.02C670.431 204.02 676.411 219.38 682.311 234.31C692.371 259.78 697.611 287.44 699.641 314.75C701.671 342.06 704.641 370.5 719.301 393.6C722.631 398.83 726.511 403.69 729.771 408.95C733.191 414.45 735.901 420.35 738.921 426.07C747.819 442.963 759.29 458.371 772.921 471.74C776.921 475.64 781.161 479.42 786.261 481.67C789.548 483.096 793.087 483.85 796.669 483.888C800.252 483.926 803.805 483.246 807.121 481.89C813.961 479.06 819.721 472.68 820.001 465.28C820.251 458.66 816.301 452.69 812.341 447.39C798.92 429.434 783.486 413.074 766.341 398.63C763.231 396.01 759.951 393.3 758.341 389.56C756.531 385.25 757.271 380.36 757.041 375.69C756.671 368.24 753.771 361.17 752.041 353.91C745.041 324.42 757.481 292.22 747.361 263.65C745.111 257.3 741.771 251.23 740.981 244.54C740.421 239.86 741.591 234.63 744.511 231.12C747.254 227.965 748.792 223.94 748.851 219.76C748.851 218.9 748.851 218.05 748.741 217.21C747.521 204.12 746.311 190.97 746.971 177.84C747.631 164.71 750.241 151.51 756.301 139.84C759.441 133.79 763.501 128.13 765.441 121.6C768.561 111.03 765.681 99.6 761.031 89.6C757.401 81.78 752.561 74.33 745.801 68.97C733.241 59.02 714.441 57.87 700.691 66.1C690.551 72.16 683.611 82.35 677.981 92.74C673.941 100.33 669.681 106.76 669.791 115.42Z" fill="black"/>
<path d="M667.511 115.42C671.441 118.07 672.811 123.19 673.311 127.91C675.441 147.98 667.161 167.85 667.711 188.02C668.151 204.02 674.131 219.38 680.031 234.31C690.091 259.78 695.321 287.44 697.361 314.75C699.401 342.06 702.361 370.5 717.021 393.6C720.351 398.83 724.221 403.69 727.491 408.95C730.901 414.45 733.621 420.35 736.641 426.07C745.542 442.962 757.012 458.369 770.641 471.74C774.641 475.64 778.891 479.42 783.991 481.67C787.278 483.096 790.817 483.85 794.399 483.888C797.981 483.926 801.535 483.246 804.851 481.89C811.681 479.06 817.441 472.68 817.721 465.28C817.981 458.66 814.031 452.69 810.061 447.39C796.64 429.434 781.206 413.074 764.061 398.63C760.951 396.01 757.661 393.3 756.061 389.56C754.241 385.25 754.991 380.36 754.761 375.69C754.391 368.24 751.491 361.17 749.761 353.91C742.761 324.42 755.201 292.22 745.081 263.65C742.831 257.3 739.481 251.23 738.691 244.54C738.141 239.86 739.301 234.63 742.221 231.12C745.015 227.986 746.597 223.957 746.681 219.76C746.681 218.9 746.681 218.05 746.571 217.21C745.361 204.12 744.151 190.97 744.811 177.84C745.471 164.71 748.081 151.51 754.141 139.84C757.281 133.79 761.341 128.13 763.281 121.6C766.401 111.03 763.521 99.6 758.871 89.6C755.231 81.78 750.401 74.33 743.641 68.97C731.081 59.02 712.281 57.87 698.531 66.1C688.391 72.16 681.451 82.35 675.821 92.74C671.681 100.33 667.441 106.76 667.511 115.42Z" fill="#A1616A"/>
<path d="M566.381 376.55L567.241 376.81Z" fill="#464353"/>
<path d="M741.531 421.17C741.494 420.833 741.434 420.499 741.351 420.17Z" fill="#464353"/>
<path d="M527.131 352.55C524.251 349.22 519.811 347.73 515.541 346.62C508.66 344.841 501.631 343.696 494.541 343.2C490.14 342.726 485.691 343 481.381 344.01C477.121 345.18 473.081 347.72 470.921 351.57C469.011 354.97 468.711 359.01 468.461 362.9C467.941 370.9 467.461 378.9 468.781 386.78C469.631 391.78 471.221 396.62 472.251 401.58C475.591 417.84 472.691 434.67 472.991 451.27C473.061 454.81 473.291 458.44 474.781 461.65C476.371 465.06 479.231 467.65 482.021 470.21C485.091 472.98 488.211 475.77 491.911 477.62C497.391 480.37 503.701 480.83 509.831 481.02C513.561 481.13 517.401 481.14 520.831 479.77C524.261 478.4 527.351 475.32 527.601 471.59C528.001 465.26 520.861 461.12 518.821 455.12C517.201 450.34 519.061 445.06 521.641 440.71C525.779 433.776 531.683 428.064 538.751 424.16C541.371 422.72 544.161 421.51 546.341 419.48C548.521 417.45 550.001 414.3 549.071 411.48C547.961 408.07 543.991 406.48 540.421 406.14C536.851 405.8 533.081 406.06 529.871 404.47C527.011 403.06 525.021 400.34 523.651 397.47C520.736 391.344 520.33 384.321 522.521 377.9C523.388 375.458 524.645 373.171 526.241 371.13C527.741 369.21 530.821 367.59 531.891 365.49C533.791 361.71 529.681 355.55 527.131 352.55Z" fill="#FFE403"/>
<path opacity="0.06" d="M585.241 207.63C601.761 193.03 624.791 189.06 646.391 184.63C657.518 182.357 668.591 179.823 679.611 177.03C686.851 175.19 694.111 173.23 701.611 172.72C709.111 172.21 716.831 173.26 723.251 177.08C729.671 180.9 734.511 187.82 734.551 195.29C734.551 198.29 733.841 201.23 734.061 204.2C734.411 208.98 737.061 213.2 738.871 217.67C741.64 224.736 742.064 232.505 740.081 239.83C736.881 251.5 727.661 261.78 728.461 273.83C729.791 294 729.381 315.08 725.241 334.83C721.101 354.58 715.931 374.42 716.051 394.63C716.171 414.84 722.291 436.09 737.381 449.55C727.157 459.149 714.653 465.982 701.051 469.4C689.421 472.31 675.591 472.02 667.311 463.35C665.391 461.35 663.801 458.68 664.201 455.93C664.614 454.195 665.343 452.551 666.351 451.08C672.041 440.89 671.351 428.33 668.831 416.95C666.311 405.57 662.001 394.51 660.911 382.89C660.111 374.46 661.011 365.89 659.401 357.57C658.161 351.2 655.481 345.2 653.871 338.91C649.121 320.25 654.111 300.66 659.071 282.07C654.921 291.62 647.071 299.07 638.951 305.55C626.631 315.37 611.731 324.04 596.071 322.3C582.131 320.74 570.261 311.05 562.071 299.68C562.001 286.53 557.441 274.1 558.251 260.98C558.774 255.217 559.805 249.512 561.331 243.93C562.861 237.69 564.431 231.39 567.331 225.66C571.161 218.05 578.861 213.26 585.241 207.63Z" fill="black"/>
<path d="M581.821 207.63C598.341 193.03 621.361 189.06 642.971 184.63C654.098 182.357 665.168 179.823 676.181 177.03C683.421 175.19 690.691 173.23 698.181 172.72C705.671 172.21 713.391 173.26 719.811 177.08C726.231 180.9 731.081 187.82 731.111 195.29C731.111 198.29 730.411 201.23 730.631 204.2C730.971 208.98 733.681 213.2 735.441 217.67C738.206 224.737 738.627 232.506 736.641 239.83C733.451 251.5 724.231 261.78 725.021 273.83C726.361 294 725.951 315.08 721.811 334.83C717.671 354.58 712.501 374.42 712.621 394.63C712.741 414.84 718.901 436.02 734.001 449.46C723.776 459.058 711.272 465.89 697.671 469.31C686.041 472.22 672.201 471.93 663.931 463.26C662.011 461.26 660.421 458.59 660.821 455.84C661.234 454.105 661.963 452.461 662.971 450.99C668.661 440.8 667.971 428.24 665.451 416.86C662.931 405.48 658.621 394.42 657.521 382.8C656.731 374.37 657.631 365.8 656.011 357.48C654.781 351.11 652.091 345.11 650.491 338.82C645.741 320.16 650.721 300.57 655.691 281.98C651.541 291.53 643.691 298.98 635.561 305.46C623.241 315.28 608.351 323.95 592.691 322.21C578.751 320.65 566.881 310.96 558.691 299.59C558.631 286.44 554.071 274.01 554.881 260.89C555.404 255.127 556.434 249.422 557.961 243.84C559.481 237.6 561.061 231.3 563.961 225.57C567.681 218.05 575.441 213.26 581.821 207.63Z" fill="#A1616A"/>
<path d="M696.581 459.98C703.918 455.512 710.253 449.578 715.191 442.55C716.971 440.03 718.571 437.35 720.791 435.21C723.011 433.07 726.021 431.48 729.091 431.8C732.561 432.16 735.341 434.8 737.541 437.52C743.441 444.83 747.241 453.77 753.791 460.52C761.351 468.33 771.901 472.52 782.431 475.2C792.961 477.88 803.831 479.29 814.151 482.68C817.391 483.74 820.801 485.18 822.551 488.11C824.771 491.84 823.551 496.73 821.211 500.43C816.901 507.43 809.481 511.94 801.741 514.62C794.001 517.3 785.811 518.37 777.741 519.95C763.481 522.74 748.871 527.21 734.681 524.06C729.021 522.8 723.681 520.36 717.961 519.3C704.961 516.88 691.551 521.77 678.501 519.81C672.191 518.86 666.231 516.34 660.501 513.5C657.628 512.258 655.015 510.483 652.801 508.27C650.711 505.95 649.451 502.66 650.311 499.66C650.801 497.93 651.931 496.47 652.681 494.84C653.861 492.32 654.101 489.49 654.381 486.72C655.461 476.176 657.292 465.723 659.861 455.44C660.751 451.85 662.081 447.85 665.431 446.28C666.114 445.911 666.914 445.822 667.661 446.03C668.851 446.48 669.241 447.92 669.601 449.13C670.583 452.475 672.463 455.488 675.036 457.84C677.609 460.192 680.778 461.795 684.198 462.473C687.618 463.151 691.158 462.879 694.434 461.687C697.71 460.495 700.597 458.427 702.781 455.71" fill="#FFE403"/>
<path d="M478.211 267.1C477.911 276.43 477.671 285.78 477.781 295.1C477.841 300.04 478.051 305.19 480.421 309.52C482.111 312.63 484.781 315.06 487.421 317.44L503.891 332.37C509.001 337 514.511 341.83 521.321 342.98C529.111 344.3 536.721 340.51 544.211 337.98C551.754 335.439 559.652 334.112 567.611 334.05C572.171 334.05 576.771 334.41 581.271 333.69C584.525 333.071 587.718 332.164 590.811 330.98L605.681 325.82C605.261 322.07 601.681 319.68 598.681 317.31C588.031 308.67 583.361 294.78 580.001 281.49C577.27 271.114 575.325 260.548 574.181 249.88C573.671 244.6 573.441 239.23 574.551 234.04C575.598 229.853 577.073 225.785 578.951 221.9L584.181 210.11C587.181 203.45 593.181 200.49 599.291 196.56C590.071 200.06 578.831 201.43 571.821 208.37C570.469 209.908 568.866 211.206 567.081 212.21C565.171 213.12 563.001 213.21 560.911 213.55C550.501 215.11 541.651 221.65 533.051 227.7C522.524 235.113 511.705 242.077 500.591 248.59C495.591 251.53 490.431 254.42 486.221 258.43C482.011 262.44 478.711 267.78 478.441 273.59" fill="#464353"/>
<path opacity="0.06" d="M455.52 206.26C459.45 208.91 460.82 214.03 461.32 218.75C463.45 238.82 455.17 258.69 455.72 278.86C456.16 294.91 462.14 310.22 468.04 325.15C478.1 350.62 483.34 378.28 485.37 405.59C487.4 432.9 490.37 461.34 505.03 484.44C508.36 489.67 512.24 494.53 515.5 499.79C518.92 505.29 521.63 511.19 524.65 516.91C533.548 533.803 545.018 549.211 558.65 562.58C562.65 566.48 566.89 570.26 571.99 572.51C575.277 573.936 578.815 574.69 582.398 574.728C585.98 574.766 589.534 574.086 592.85 572.73C599.69 569.9 605.45 563.52 605.73 556.12C605.98 549.5 602.03 543.53 598.07 538.23C584.648 520.274 569.214 503.914 552.07 489.47C548.96 486.85 545.68 484.14 544.07 480.4C542.26 476.09 543 471.2 542.77 466.53C542.4 459.08 539.5 452.01 537.77 444.75C530.77 415.26 543.21 383.06 533.09 354.49C530.84 348.14 527.5 342.07 526.71 335.38C526.15 330.7 527.31 325.47 530.24 321.96C532.984 318.806 534.518 314.78 534.57 310.6C534.57 309.74 534.57 308.89 534.47 308.05C533.25 294.96 532.04 281.81 532.7 268.68C533.36 255.55 535.97 242.35 542.03 230.68C545.17 224.63 549.23 218.97 551.17 212.44C554.29 201.87 551.41 190.44 546.76 180.44C543.13 172.62 538.29 165.17 531.53 159.81C518.97 149.86 500.17 148.71 486.42 156.94C476.28 163 469.34 173.19 463.71 183.58C459.67 191.17 455.46 197.6 455.52 206.26Z" fill="black"/>
<path d="M488.85 126.56C490.77 131.74 492.68 136.92 494.58 142.1C495.84 145.5 497.09 148.93 498.39 152.33C504.39 168 511.1 183.42 521.6 196.39C520.03 194.45 534.8 184.69 545.69 178.03C551 174.76 555.4 172.24 556.48 171.74C559.047 170.58 561.674 169.559 564.35 168.68C568.5 167.28 572.7 166.07 576.85 164.56C586.45 161.09 579.74 155.88 575.63 150.28C562.18 131.94 559.63 106.88 544.36 90.03C538.76 100.67 529.901 109.238 519.08 114.48C518.87 114.59 518.65 114.69 518.43 114.78C509.36 119.02 499.34 120.85 489.96 124.4C489.45 124.59 488.86 124.86 488.69 125.4C488.627 125.794 488.682 126.198 488.85 126.56Z" fill="#C07A84"/>
<path d="M514.96 496.98C519.304 503.204 522.008 510.423 522.821 517.969C523.633 525.515 522.529 533.144 519.61 540.15C518.872 542.108 517.723 543.884 516.24 545.36C514.352 546.835 512.153 547.861 509.81 548.36C489.95 554.01 468.75 552.9 448.41 549.36C441.52 548.3 434.748 546.575 428.19 544.21C418.12 540.36 409.13 534.21 400.25 528.07L381.47 515.13C375.39 510.94 369.26 506.73 362.47 503.79C352.07 499.3 340.55 498.01 329.22 498.02C319.488 498.032 309.778 498.959 300.22 500.79C293.85 502.02 286.22 503.29 281.74 498.64C279.18 496.01 278.42 492.16 277.92 488.53C275.941 474.406 275.979 460.073 278.03 445.96C278.08 444.773 278.511 443.633 279.26 442.71C279.966 442.111 280.825 441.72 281.74 441.58C290.59 439.58 299.47 443.73 308.07 446.58C325.94 452.52 345.13 453.23 363.31 458.12C382.39 463.25 400.31 472.96 420.03 474.93C429.43 475.87 438.87 475.05 448.29 475.26C457.03 475.45 465.18 478.47 473.74 478.83C490.24 479.56 504.59 482.44 514.96 496.98Z" fill="#C07A84"/>
<path opacity="0.06" d="M514.96 496.98C519.304 503.204 522.008 510.423 522.821 517.969C523.633 525.515 522.529 533.144 519.61 540.15C518.872 542.108 517.723 543.884 516.24 545.36C514.352 546.835 512.153 547.861 509.81 548.36C489.95 554.01 468.75 552.9 448.41 549.36C441.52 548.3 434.748 546.575 428.19 544.21C418.12 540.36 409.13 534.21 400.25 528.07L381.47 515.13C375.39 510.94 369.26 506.73 362.47 503.79C352.07 499.3 340.55 498.01 329.22 498.02C319.488 498.032 309.778 498.959 300.22 500.79C293.85 502.02 286.22 503.29 281.74 498.64C279.18 496.01 278.42 492.16 277.92 488.53C275.941 474.406 275.979 460.073 278.03 445.96C278.08 444.773 278.511 443.633 279.26 442.71C279.966 442.111 280.825 441.72 281.74 441.58C290.59 439.58 299.47 443.73 308.07 446.58C325.94 452.52 345.13 453.23 363.31 458.12C382.39 463.25 400.31 472.96 420.03 474.93C429.43 475.87 438.87 475.05 448.29 475.26C457.03 475.45 465.18 478.47 473.74 478.83C490.24 479.56 504.59 482.44 514.96 496.98Z" fill="#C07A84"/>
<path d="M498.82 475.84C499.29 478.05 499.71 480.39 499.05 482.55C498.231 484.674 496.848 486.534 495.05 487.93C478.05 503.15 453.76 506.3 431.05 508.77C424.9 509.44 418.64 510.11 412.55 509C407 508 401.82 505.55 396.71 503.13C385.71 497.92 374.65 492.65 365.22 484.99C355.97 477.49 348.55 467.89 338.97 460.82C328.08 452.82 314.69 448.24 304.97 438.82C297.942 432.04 293.271 423.188 291.64 413.56C290.54 406.99 290.9 400.28 291.64 393.66C292.43 386.05 293.7 378.31 297.32 371.57C301.51 363.77 308.55 357.88 315.98 353.04C331.7 342.82 350.21 336.48 368.98 336.64C394.98 336.87 418.98 352 437.64 368.99C457.377 386.985 473.352 408.713 484.64 432.92C491.013 446.629 495.771 461.032 498.82 475.84V475.84Z" fill="#464353"/>
<path opacity="0.06" d="M498.82 475.84C499.29 478.05 499.71 480.39 499.05 482.55C498.231 484.674 496.848 486.534 495.05 487.93C478.05 503.15 453.76 506.3 431.05 508.77C424.9 509.44 418.64 510.11 412.55 509C407 508 401.82 505.55 396.71 503.13C385.71 497.92 374.65 492.65 365.22 484.99C355.97 477.49 348.55 467.89 338.97 460.82C328.08 452.82 314.69 448.24 304.97 438.82C297.942 432.04 293.271 423.188 291.64 413.56C290.54 406.99 290.9 400.28 291.64 393.66C292.43 386.05 293.7 378.31 297.32 371.57C301.51 363.77 308.55 357.88 315.98 353.04C331.7 342.82 350.21 336.48 368.98 336.64C394.98 336.87 418.98 352 437.64 368.99C457.377 386.985 473.352 408.713 484.64 432.92C491.013 446.629 495.771 461.032 498.82 475.84V475.84Z" fill="black"/>
<path d="M455.52 206.26C459.45 208.91 460.82 214.03 461.32 218.75C463.45 238.82 455.17 258.69 455.72 278.86C456.16 294.91 462.14 310.22 468.04 325.15C478.1 350.62 483.34 378.28 485.37 405.59C487.4 432.9 490.37 461.34 505.03 484.44C508.36 489.67 512.24 494.53 515.5 499.79C518.92 505.29 521.63 511.19 524.65 516.91C533.548 533.803 545.018 549.211 558.65 562.58C562.65 566.48 566.89 570.26 571.99 572.51C575.277 573.936 578.815 574.69 582.398 574.728C585.98 574.766 589.534 574.086 592.85 572.73C599.69 569.9 605.45 563.52 605.73 556.12C605.98 549.5 602.03 543.53 598.07 538.23C584.648 520.274 569.214 503.914 552.07 489.47C548.96 486.85 545.68 484.14 544.07 480.4C542.26 476.09 543 471.2 542.77 466.53C542.4 459.08 539.5 452.01 537.77 444.75C530.77 415.26 543.21 383.06 533.09 354.49C530.84 348.14 527.5 342.07 526.71 335.38C526.15 330.7 527.31 325.47 530.24 321.96C532.984 318.806 534.518 314.78 534.57 310.6C534.57 309.74 534.57 308.89 534.47 308.05C533.25 294.96 532.04 281.81 532.7 268.68C533.36 255.55 535.97 242.35 542.03 230.68C545.17 224.63 549.23 218.97 551.17 212.44C554.29 201.87 551.41 190.44 546.76 180.44C543.13 172.62 538.29 165.17 531.53 159.81C518.97 149.86 500.17 148.71 486.42 156.94C476.28 163 469.34 173.19 463.71 183.58C459.67 191.17 455.46 197.6 455.52 206.26Z" fill="#C07A84"/>
<path d="M510.77 273.44C489.866 273.44 472.92 246.85 472.92 214.05C472.92 181.25 489.866 154.66 510.77 154.66C531.674 154.66 548.62 181.25 548.62 214.05C548.62 246.85 531.674 273.44 510.77 273.44Z" fill="#C07A84"/>
<path opacity="0.06" d="M518.43 114.78C518.43 114.92 518.43 115.05 518.43 115.19C520.24 130.79 535.24 130.07 538.74 154.65C540.12 164.28 554.74 166.06 564.35 168.65C568.5 167.25 572.7 166.04 576.85 164.53C586.45 161.06 579.74 155.85 575.63 150.25C562.18 131.91 559.63 106.85 544.36 90C538.76 100.64 529.901 109.208 519.08 114.45C518.87 114.59 518.65 114.69 518.43 114.78Z" fill="#C07A84"/>
<path d="M492.83 112.85C485.64 112.5 478.73 115.32 472.09 118.09C445.76 129.09 419.21 140.18 395.68 156.33C384.08 164.33 373.33 173.41 362.6 182.52L318.51 219.98C310.04 227.17 301.51 234.43 294.71 243.23C290.707 248.657 287.056 254.336 283.78 260.23L277.24 271.38C274.561 275.744 272.22 280.308 270.24 285.03C266.88 293.64 265.63 303.68 258.85 309.97C254.3 314.2 248.03 315.92 242.47 318.71C236.91 321.5 231.47 326.4 231.56 332.62C231.56 336.62 233.98 340.22 235.8 343.82C239.57 351.343 241.15 359.773 240.36 368.15L312.46 313.05C315.33 310.86 318.33 308.6 321.86 307.86C326.44 306.86 331.11 308.59 335.53 310.15C370.374 322.438 407.403 327.306 444.24 324.44C460.53 323.16 477.07 320.23 491.33 312.26C499.22 307.86 506.2 302.03 513.13 296.26C521.78 289.02 530.46 281.76 538.13 273.48C540.13 271.27 542.21 268.84 542.72 265.88C543.1 263.74 542.63 261.56 542.45 259.4C541.19 244.23 553.79 231.6 557.63 216.87C559.336 209.924 559.099 202.643 556.946 195.823C554.793 189.003 550.805 182.906 545.42 178.2C536.83 185.72 537.14 198.93 538.14 210.3C539.49 225.61 535.21 233.2 536.56 248.52C531.12 248.32 532.11 251.82 529.79 246.89C527.47 241.96 527.02 236.4 526.58 230.97C524.973 211.33 523.023 191.723 520.73 172.15C519.59 162.36 518.29 152.59 517.04 142.81C516.28 136.86 516.38 131.3 513.24 126.02C508.88 118.71 501.47 113.26 492.83 112.85Z" fill="#FFE403"/>
<path d="M483.42 130.69C478.84 129.25 473.91 130.57 469.31 131.94C461.176 134.353 453.09 136.903 445.05 139.59C438.48 141.78 431.82 144.13 426.26 148.26C420.49 152.54 416.26 158.49 412.07 164.34C409.07 168.55 406.07 172.81 404.07 177.59C401.47 183.85 400.77 190.71 400.07 197.45C399.611 200.359 399.648 203.324 400.18 206.22C401.119 209.365 402.772 212.25 405.01 214.65C408.453 218.725 412.444 222.302 416.87 225.28C428.64 233.2 442.87 236.5 456.73 239.41C469.1 242 481.56 244.41 494.18 245.19C499.09 245.5 504.79 245.19 507.79 241.31C508.644 240.1 509.317 238.773 509.79 237.37C517.164 217.841 520.356 196.981 519.16 176.14C519.051 172.341 518.463 168.571 517.41 164.92C516.371 161.998 515.083 159.171 513.56 156.47C509.77 149.3 505.78 141.88 499.25 137.08C492.42 132.08 483.57 130.5 475.1 130.82" fill="#C07A84"/>
<path opacity="0.06" d="M437.35 204.85C441.28 207.5 442.65 212.62 443.15 217.34C445.28 237.41 437 257.28 437.55 277.45C437.99 293.45 443.97 308.81 449.87 323.74C459.93 349.21 465.17 376.87 467.2 404.18C469.23 431.49 472.2 459.93 486.86 483.03C490.19 488.26 494.07 493.12 497.33 498.38C500.75 503.88 503.46 509.78 506.48 515.5C515.378 532.393 526.848 547.801 540.48 561.17C544.48 565.07 548.72 568.85 553.82 571.1C557.107 572.526 560.645 573.28 564.228 573.318C567.81 573.356 571.364 572.676 574.68 571.32C581.52 568.49 587.28 562.11 587.56 554.71C587.81 548.09 583.86 542.12 579.9 536.82C566.478 518.864 551.044 502.504 533.9 488.06C530.79 485.44 527.51 482.73 525.9 478.99C524.09 474.68 524.83 469.79 524.6 465.12C524.23 457.67 521.33 450.6 519.6 443.34C512.6 413.85 525.04 381.65 514.92 353.08C512.67 346.73 509.33 340.66 508.54 333.97C507.98 329.29 509.15 324.06 512.07 320.55C514.813 317.395 516.35 313.37 516.41 309.19C516.41 308.33 516.41 307.48 516.3 306.64C515.08 293.55 513.87 280.4 514.53 267.27C515.19 254.14 517.8 240.94 523.86 229.27C527 223.22 531.06 217.56 533 211.03C536.12 200.46 533.24 189.03 528.59 179.03C524.96 171.21 520.12 163.76 513.36 158.4C500.8 148.45 482 147.3 468.25 155.53C458.11 161.59 451.17 171.78 445.54 182.17C441.5 189.76 437.24 196.19 437.35 204.85Z" fill="black"/>
<path d="M435.07 204.85C439 207.5 440.37 212.62 440.87 217.34C443 237.41 434.72 257.28 435.27 277.45C435.71 293.45 441.69 308.81 447.59 323.74C457.65 349.21 462.88 376.87 464.92 404.18C466.96 431.49 469.92 459.93 484.58 483.03C487.91 488.26 491.78 493.12 495.05 498.38C498.46 503.88 501.18 509.78 504.2 515.5C513.101 532.392 524.571 547.798 538.2 561.17C542.2 565.07 546.45 568.85 551.55 571.1C554.836 572.526 558.375 573.28 561.958 573.318C565.54 573.356 569.094 572.676 572.41 571.32C579.24 568.49 585 562.11 585.28 554.71C585.54 548.09 581.59 542.12 577.62 536.82C564.198 518.864 548.765 502.504 531.62 488.06C528.51 485.44 525.22 482.73 523.62 478.99C521.8 474.68 522.55 469.79 522.32 465.12C521.95 457.67 519.05 450.6 517.32 443.34C510.32 413.85 522.76 381.65 512.64 353.08C510.39 346.73 507.04 340.66 506.25 333.97C505.7 329.29 506.86 324.06 509.78 320.55C512.574 317.416 514.156 313.387 514.24 309.19C514.24 308.33 514.24 307.48 514.13 306.64C512.92 293.55 511.71 280.4 512.37 267.27C513.03 254.14 515.64 240.94 521.7 229.27C524.84 223.22 528.9 217.56 530.84 211.03C533.96 200.46 531.08 189.03 526.43 179.03C522.79 171.21 517.96 163.76 511.2 158.4C498.64 148.45 479.84 147.3 466.09 155.53C455.95 161.59 449.01 171.78 443.38 182.17C439.24 189.76 435 196.19 435.07 204.85Z" fill="#C07A84"/>
<path d="M333.94 465.98L334.8 466.24Z" fill="#464353"/>
<path d="M509.09 510.6C509.053 510.263 508.993 509.929 508.91 509.6Z" fill="#464353"/>
<path d="M294.69 441.98C291.81 438.65 287.37 437.16 283.1 436.05C276.219 434.271 269.19 433.126 262.1 432.63C257.699 432.156 253.25 432.43 248.94 433.44C244.68 434.61 240.64 437.15 238.48 441C236.57 444.4 236.27 448.44 236.02 452.33C235.5 460.33 235.02 468.33 236.34 476.21C237.19 481.21 238.78 486.05 239.81 491.01C243.15 507.27 240.25 524.1 240.55 540.7C240.62 544.24 240.85 547.87 242.34 551.08C243.93 554.49 246.79 557.08 249.58 559.64C252.65 562.41 255.77 565.2 259.47 567.05C264.95 569.8 271.26 570.26 277.39 570.45C281.12 570.56 284.96 570.57 288.39 569.2C291.82 567.83 294.91 564.75 295.16 561.02C295.56 554.69 288.42 550.55 286.38 544.55C284.76 539.77 286.62 534.49 289.2 530.14C293.337 523.206 299.242 517.494 306.31 513.59C308.93 512.15 311.72 510.94 313.9 508.91C316.08 506.88 317.56 503.73 316.63 500.91C315.52 497.5 311.55 495.91 307.98 495.57C304.41 495.23 300.64 495.49 297.43 493.9C294.57 492.49 292.58 489.77 291.21 486.9C288.294 480.774 287.889 473.751 290.08 467.33C290.947 464.888 292.203 462.601 293.8 460.56C295.3 458.64 298.38 457.02 299.45 454.92C301.35 451.14 297.24 444.98 294.69 441.98Z" fill="#FFE403"/>
<path opacity="0.06" d="M352.8 297.06C369.32 282.46 392.35 278.49 413.95 274.06C425.077 271.787 436.15 269.253 447.17 266.46C454.41 264.62 461.67 262.66 469.17 262.15C476.67 261.64 484.39 262.69 490.81 266.51C497.23 270.33 502.07 277.25 502.11 284.72C502.11 287.72 501.4 290.66 501.62 293.63C501.97 298.41 504.62 302.63 506.43 307.1C509.198 314.166 509.622 321.935 507.64 329.26C504.44 340.93 495.22 351.21 496.02 363.26C497.35 383.43 496.94 404.51 492.8 424.26C488.66 444.01 483.49 463.85 483.61 484.06C483.73 504.27 489.85 525.52 504.94 538.98C494.716 548.579 482.211 555.412 468.61 558.83C456.98 561.74 443.15 561.45 434.87 552.78C432.95 550.78 431.36 548.11 431.76 545.36C432.173 543.625 432.901 541.981 433.91 540.51C439.6 530.32 438.91 517.76 436.39 506.38C433.87 495 429.56 483.94 428.47 472.32C427.67 463.89 428.57 455.32 426.96 447C425.72 440.63 423.04 434.63 421.43 428.34C416.68 409.68 421.67 390.09 426.63 371.5C422.48 381.05 414.63 388.5 406.51 394.98C394.19 404.8 379.29 413.47 363.63 411.73C349.69 410.17 337.82 400.48 329.63 389.11C329.56 375.96 325 363.53 325.81 350.41C326.333 344.647 327.363 338.942 328.89 333.36C330.42 327.12 331.99 320.82 334.89 315.09C338.72 307.48 346.42 302.69 352.8 297.06Z" fill="black"/>
<path d="M349.38 297.06C365.9 282.46 388.92 278.49 410.53 274.06C421.657 271.787 432.727 269.253 443.74 266.46C450.98 264.62 458.25 262.66 465.74 262.15C473.23 261.64 480.95 262.69 487.37 266.51C493.79 270.33 498.64 277.25 498.67 284.72C498.67 287.72 497.97 290.66 498.19 293.63C498.53 298.41 501.24 302.63 503 307.1C505.765 314.167 506.185 321.936 504.2 329.26C501.01 340.93 491.79 351.21 492.58 363.26C493.92 383.43 493.51 404.51 489.37 424.26C485.23 444.01 480.06 463.85 480.18 484.06C480.3 504.27 486.46 525.45 501.56 538.89C491.334 548.488 478.83 555.32 465.23 558.74C453.6 561.65 439.76 561.36 431.49 552.69C429.57 550.69 427.98 548.02 428.38 545.27C428.792 543.535 429.521 541.891 430.53 540.42C436.22 530.23 435.53 517.67 433.01 506.29C430.49 494.91 426.18 483.85 425.08 472.23C424.29 463.8 425.19 455.23 423.57 446.91C422.34 440.54 419.65 434.54 418.05 428.25C413.3 409.59 418.28 390 423.25 371.41C419.1 380.96 411.25 388.41 403.12 394.89C390.8 404.71 375.91 413.38 360.25 411.64C346.31 410.08 334.44 400.39 326.25 389.02C326.19 375.87 321.63 363.44 322.44 350.32C322.962 344.557 323.993 338.852 325.52 333.27C327.04 327.03 328.62 320.73 331.52 315C335.24 307.48 343 302.69 349.38 297.06Z" fill="#C07A84"/>
<path d="M464.14 549.41C471.476 544.942 477.811 539.008 482.75 531.98C484.53 529.46 486.13 526.78 488.35 524.64C490.57 522.5 493.58 520.91 496.65 521.23C500.12 521.59 502.9 524.23 505.1 526.95C511 534.26 514.8 543.2 521.35 549.95C528.91 557.76 539.46 561.95 549.99 564.63C560.52 567.31 571.39 568.72 581.71 572.11C584.95 573.17 588.36 574.61 590.11 577.54C592.33 581.27 591.11 586.16 588.77 589.86C584.46 596.86 577.04 601.37 569.3 604.05C561.56 606.73 553.37 607.8 545.3 609.38C531.04 612.17 516.43 616.64 502.24 613.49C496.58 612.23 491.24 609.79 485.52 608.73C472.52 606.31 459.11 611.2 446.06 609.24C439.75 608.29 433.79 605.77 428.06 602.93C425.186 601.688 422.574 599.913 420.36 597.7C418.27 595.38 417.01 592.09 417.87 589.09C418.36 587.36 419.49 585.9 420.24 584.27C421.42 581.75 421.66 578.92 421.94 576.15C423.019 565.606 424.851 555.153 427.42 544.87C428.31 541.28 429.64 537.28 432.99 535.71C433.673 535.341 434.472 535.252 435.22 535.46C436.41 535.91 436.8 537.35 437.16 538.56C438.142 541.905 440.021 544.918 442.594 547.27C445.168 549.622 448.336 551.225 451.756 551.903C455.176 552.581 458.716 552.309 461.993 551.117C465.269 549.925 468.156 547.857 470.34 545.14" fill="#FFE403"/>
<path d="M252.77 311.53C252.47 320.86 252.23 330.21 252.34 339.53C252.4 344.47 252.61 349.62 254.98 353.95C256.67 357.06 259.34 359.49 261.98 361.87L278.45 376.8C283.56 381.43 289.07 386.26 295.88 387.41C303.67 388.73 311.28 384.94 318.77 382.41C326.312 379.869 334.211 378.542 342.17 378.48C346.73 378.48 351.33 378.84 355.83 378.12C359.084 377.501 362.276 376.594 365.37 375.41L380.24 370.25C379.82 366.5 376.24 364.11 373.24 361.74C362.59 353.1 357.92 339.21 354.56 325.92C351.829 315.544 349.883 304.978 348.74 294.31C348.23 289.03 348 283.66 349.11 278.47C350.157 274.283 351.631 270.215 353.51 266.33L358.74 254.54C361.74 247.88 367.74 244.92 373.85 240.99C364.63 244.49 353.39 245.86 346.38 252.8C345.027 254.338 343.425 255.636 341.64 256.64C339.73 257.55 337.56 257.64 335.47 257.98C325.06 259.54 316.21 266.08 307.61 272.13C297.083 279.543 286.263 286.507 275.15 293.02C270.15 295.96 264.99 298.85 260.78 302.86C256.57 306.87 253.27 312.21 253 318.02" fill="#464353"/>
<path opacity="0.06" d="M224.52 306.26C228.45 308.91 229.82 314.03 230.32 318.75C232.45 338.82 224.17 358.69 224.72 378.86C225.16 394.91 231.14 410.22 237.04 425.15C247.1 450.62 252.34 478.28 254.37 505.59C256.4 532.9 259.37 561.34 274.03 584.44C277.36 589.67 281.24 594.53 284.5 599.79C287.92 605.29 290.63 611.19 293.65 616.91C302.548 633.803 314.018 649.211 327.65 662.58C331.65 666.48 335.89 670.26 340.99 672.51C344.277 673.936 347.815 674.69 351.398 674.728C354.98 674.766 358.534 674.086 361.85 672.73C368.69 669.9 374.45 663.52 374.73 656.12C374.98 649.5 371.03 643.53 367.07 638.23C353.648 620.274 338.214 603.914 321.07 589.47C317.96 586.85 314.68 584.14 313.07 580.4C311.26 576.09 312 571.2 311.77 566.53C311.4 559.08 308.5 552.01 306.77 544.75C299.77 515.26 312.21 483.06 302.09 454.49C299.84 448.14 296.5 442.07 295.71 435.38C295.15 430.7 296.31 425.47 299.24 421.96C301.984 418.806 303.518 414.78 303.57 410.6C303.57 409.74 303.57 408.89 303.47 408.05C302.25 394.96 301.04 381.81 301.7 368.68C302.36 355.55 304.97 342.35 311.03 330.68C314.17 324.63 318.23 318.97 320.17 312.44C323.29 301.87 320.41 290.44 315.76 280.44C312.13 272.62 307.29 265.17 300.53 259.81C287.97 249.86 269.17 248.71 255.42 256.94C245.28 263 238.34 273.19 232.71 283.58C228.67 291.17 224.46 297.6 224.52 306.26Z" fill="black"/>
<path d="M257.85 226.56C259.77 231.74 261.68 236.92 263.58 242.1C264.84 245.5 266.09 248.93 267.39 252.33C273.39 268 280.1 283.42 290.6 296.39C289.03 294.45 303.8 284.69 314.69 278.03C320 274.76 324.4 272.24 325.48 271.74C328.047 270.58 330.674 269.559 333.35 268.68C337.5 267.28 341.7 266.07 345.85 264.56C355.45 261.09 348.74 255.88 344.63 250.28C331.18 231.94 328.63 206.88 313.36 190.03C307.76 200.67 298.901 209.238 288.08 214.48C287.87 214.59 287.65 214.69 287.43 214.78C278.36 219.02 268.34 220.85 258.96 224.4C258.45 224.59 257.86 224.86 257.69 225.4C257.627 225.794 257.682 226.198 257.85 226.56Z" fill="#E1A4AD"/>
<path d="M283.96 596.98C288.304 603.204 291.008 610.423 291.821 617.969C292.634 625.515 291.529 633.144 288.61 640.15C287.872 642.108 286.723 643.884 285.24 645.36C283.352 646.835 281.153 647.861 278.81 648.36C258.95 654.01 237.75 652.9 217.41 649.36C210.52 648.3 203.748 646.575 197.19 644.21C187.12 640.36 178.13 634.21 169.25 628.07L150.47 615.13C144.39 610.94 138.26 606.73 131.47 603.79C121.07 599.3 109.55 598.01 98.22 598.02C88.4879 598.032 78.7784 598.959 69.22 600.79C62.85 602.02 55.2201 603.29 50.7401 598.64C48.1801 596.01 47.4201 592.16 46.9201 588.53C44.9416 574.406 44.9786 560.073 47.0301 545.96C47.0802 544.773 47.5115 543.633 48.2601 542.71C48.9662 542.111 49.8247 541.72 50.7401 541.58C59.5901 539.58 68.4701 543.73 77.0701 546.58C94.9401 552.52 114.13 553.23 132.31 558.12C151.39 563.25 169.31 572.96 189.03 574.93C198.43 575.87 207.87 575.05 217.29 575.26C226.03 575.45 234.18 578.47 242.74 578.83C259.24 579.56 273.59 582.44 283.96 596.98Z" fill="#E1A4AD"/>
<path opacity="0.06" d="M283.96 596.98C288.304 603.204 291.008 610.423 291.821 617.969C292.634 625.515 291.529 633.144 288.61 640.15C287.872 642.108 286.723 643.884 285.24 645.36C283.352 646.835 281.153 647.861 278.81 648.36C258.95 654.01 237.75 652.9 217.41 649.36C210.52 648.3 203.748 646.575 197.19 644.21C187.12 640.36 178.13 634.21 169.25 628.07L150.47 615.13C144.39 610.94 138.26 606.73 131.47 603.79C121.07 599.3 109.55 598.01 98.22 598.02C88.4879 598.032 78.7784 598.959 69.22 600.79C62.85 602.02 55.2201 603.29 50.7401 598.64C48.1801 596.01 47.4201 592.16 46.9201 588.53C44.9416 574.406 44.9786 560.073 47.0301 545.96C47.0802 544.773 47.5115 543.633 48.2601 542.71C48.9662 542.111 49.8247 541.72 50.7401 541.58C59.5901 539.58 68.4701 543.73 77.0701 546.58C94.9401 552.52 114.13 553.23 132.31 558.12C151.39 563.25 169.31 572.96 189.03 574.93C198.43 575.87 207.87 575.05 217.29 575.26C226.03 575.45 234.18 578.47 242.74 578.83C259.24 579.56 273.59 582.44 283.96 596.98Z" fill="#E1A4AD"/>
<path d="M267.82 575.84C268.29 578.05 268.71 580.39 268.05 582.55C267.231 584.674 265.848 586.534 264.05 587.93C247.05 603.15 222.76 606.3 200.05 608.77C193.9 609.44 187.64 610.11 181.55 609C176 608 170.82 605.55 165.71 603.13C154.71 597.92 143.65 592.65 134.22 584.99C124.97 577.49 117.55 567.89 107.97 560.82C97.08 552.82 83.69 548.24 73.97 538.82C66.9426 532.04 62.2712 523.188 60.64 513.56C59.54 506.99 59.9 500.28 60.64 493.66C61.43 486.05 62.7 478.31 66.32 471.57C70.51 463.77 77.55 457.88 84.98 453.04C100.7 442.82 119.21 436.48 137.98 436.64C163.98 436.87 187.98 452 206.64 468.99C226.378 486.985 242.352 508.713 253.64 532.92C260.013 546.629 264.771 561.032 267.82 575.84V575.84Z" fill="#464353"/>
<path opacity="0.06" d="M267.82 575.84C268.29 578.05 268.71 580.39 268.05 582.55C267.231 584.674 265.848 586.534 264.05 587.93C247.05 603.15 222.76 606.3 200.05 608.77C193.9 609.44 187.64 610.11 181.55 609C176 608 170.82 605.55 165.71 603.13C154.71 597.92 143.65 592.65 134.22 584.99C124.97 577.49 117.55 567.89 107.97 560.82C97.08 552.82 83.69 548.24 73.97 538.82C66.9426 532.04 62.2712 523.188 60.64 513.56C59.54 506.99 59.9 500.28 60.64 493.66C61.43 486.05 62.7 478.31 66.32 471.57C70.51 463.77 77.55 457.88 84.98 453.04C100.7 442.82 119.21 436.48 137.98 436.64C163.98 436.87 187.98 452 206.64 468.99C226.378 486.985 242.352 508.713 253.64 532.92C260.013 546.629 264.771 561.032 267.82 575.84V575.84Z" fill="black"/>
<path d="M224.52 306.26C228.45 308.91 229.82 314.03 230.32 318.75C232.45 338.82 224.17 358.69 224.72 378.86C225.16 394.91 231.14 410.22 237.04 425.15C247.1 450.62 252.34 478.28 254.37 505.59C256.4 532.9 259.37 561.34 274.03 584.44C277.36 589.67 281.24 594.53 284.5 599.79C287.92 605.29 290.63 611.19 293.65 616.91C302.548 633.803 314.018 649.211 327.65 662.58C331.65 666.48 335.89 670.26 340.99 672.51C344.277 673.936 347.815 674.69 351.398 674.728C354.98 674.766 358.534 674.086 361.85 672.73C368.69 669.9 374.45 663.52 374.73 656.12C374.98 649.5 371.03 643.53 367.07 638.23C353.648 620.274 338.214 603.914 321.07 589.47C317.96 586.85 314.68 584.14 313.07 580.4C311.26 576.09 312 571.2 311.77 566.53C311.4 559.08 308.5 552.01 306.77 544.75C299.77 515.26 312.21 483.06 302.09 454.49C299.84 448.14 296.5 442.07 295.71 435.38C295.15 430.7 296.31 425.47 299.24 421.96C301.984 418.806 303.518 414.78 303.57 410.6C303.57 409.74 303.57 408.89 303.47 408.05C302.25 394.96 301.04 381.81 301.7 368.68C302.36 355.55 304.97 342.35 311.03 330.68C314.17 324.63 318.23 318.97 320.17 312.44C323.29 301.87 320.41 290.44 315.76 280.44C312.13 272.62 307.29 265.17 300.53 259.81C287.97 249.86 269.17 248.71 255.42 256.94C245.28 263 238.34 273.19 232.71 283.58C228.67 291.17 224.46 297.6 224.52 306.26Z" fill="#E1A4AD"/>
<path d="M279.77 373.44C258.866 373.44 241.92 346.85 241.92 314.05C241.92 281.25 258.866 254.66 279.77 254.66C300.674 254.66 317.62 281.25 317.62 314.05C317.62 346.85 300.674 373.44 279.77 373.44Z" fill="#E1A4AD"/>
<path opacity="0.06" d="M287.43 214.78C287.43 214.92 287.43 215.05 287.43 215.19C289.24 230.79 304.24 230.07 307.74 254.65C309.12 264.28 323.74 266.06 333.35 268.65C337.5 267.25 341.7 266.04 345.85 264.53C355.45 261.06 348.74 255.85 344.63 250.25C331.18 231.91 328.63 206.85 313.36 190C307.76 200.64 298.901 209.208 288.08 214.45C287.87 214.59 287.65 214.69 287.43 214.78Z" fill="#E1A4AD"/>
<path d="M261.83 212.85C254.64 212.5 247.73 215.32 241.09 218.09C214.76 229.09 188.21 240.18 164.68 256.33C153.08 264.33 142.33 273.41 131.6 282.52L87.5099 319.98C79.0399 327.17 70.5099 334.43 63.7099 343.23C59.7073 348.657 56.0566 354.336 52.7799 360.23L46.2399 371.38C43.5607 375.744 41.2205 380.308 39.2399 385.03C35.8799 393.64 34.6299 403.68 27.8499 409.97C23.2999 414.2 17.0299 415.92 11.4699 418.71C5.90988 421.5 0.469845 426.4 0.559845 432.62C0.559845 436.62 2.97996 440.22 4.79996 443.82C8.56964 451.343 10.1496 459.773 9.35989 468.15L81.4599 413.05C84.3299 410.86 87.3299 408.6 90.8599 407.86C95.4399 406.86 100.11 408.59 104.53 410.15C139.374 422.438 176.403 427.306 213.24 424.44C229.53 423.16 246.07 420.23 260.33 412.26C268.22 407.86 275.2 402.03 282.13 396.26C290.78 389.02 299.46 381.76 307.13 373.48C309.13 371.27 311.21 368.84 311.72 365.88C312.1 363.74 311.63 361.56 311.45 359.4C310.19 344.23 322.79 331.6 326.63 316.87C328.336 309.924 328.1 302.643 325.946 295.823C323.793 289.003 319.805 282.906 314.42 278.2C305.83 285.72 306.14 298.93 307.14 310.3C308.49 325.61 304.21 333.2 305.56 348.52C300.12 348.32 301.11 351.82 298.79 346.89C296.47 341.96 296.02 336.4 295.58 330.97C293.973 311.33 292.023 291.723 289.73 272.15C288.59 262.36 287.29 252.59 286.04 242.81C285.28 236.86 285.38 231.3 282.24 226.02C277.88 218.71 270.47 213.26 261.83 212.85Z" fill="#FFE403"/>
<path d="M252.42 230.69C247.84 229.25 242.91 230.57 238.31 231.94C230.177 234.353 222.09 236.903 214.05 239.59C207.48 241.78 200.82 244.13 195.26 248.26C189.49 252.54 185.26 258.49 181.07 264.34C178.07 268.55 175.07 272.81 173.07 277.59C170.47 283.85 169.77 290.71 169.07 297.45C168.611 300.359 168.648 303.324 169.18 306.22C170.119 309.365 171.772 312.25 174.01 314.65C177.453 318.725 181.444 322.302 185.87 325.28C197.64 333.2 211.87 336.5 225.73 339.41C238.1 342 250.56 344.41 263.18 345.19C268.09 345.5 273.79 345.19 276.79 341.31C277.644 340.1 278.317 338.773 278.79 337.37C286.164 317.841 289.356 296.981 288.16 276.14C288.051 272.341 287.463 268.571 286.41 264.92C285.372 261.998 284.084 259.171 282.56 256.47C278.77 249.3 274.78 241.88 268.25 237.08C261.42 232.08 252.57 230.5 244.1 230.82" fill="#E1A4AD"/>
<path opacity="0.06" d="M206.35 304.85C210.28 307.5 211.65 312.62 212.15 317.34C214.28 337.41 206 357.28 206.55 377.45C206.99 393.45 212.97 408.81 218.87 423.74C228.93 449.21 234.17 476.87 236.2 504.18C238.23 531.49 241.2 559.93 255.86 583.03C259.19 588.26 263.07 593.12 266.33 598.38C269.75 603.88 272.46 609.78 275.48 615.5C284.378 632.393 295.848 647.801 309.48 661.17C313.48 665.07 317.72 668.85 322.82 671.1C326.107 672.526 329.645 673.28 333.228 673.318C336.81 673.356 340.364 672.676 343.68 671.32C350.52 668.49 356.28 662.11 356.56 654.71C356.81 648.09 352.86 642.12 348.9 636.82C335.478 618.864 320.044 602.504 302.9 588.06C299.79 585.44 296.51 582.73 294.9 578.99C293.09 574.68 293.83 569.79 293.6 565.12C293.23 557.67 290.33 550.6 288.6 543.34C281.6 513.85 294.04 481.65 283.92 453.08C281.67 446.73 278.33 440.66 277.54 433.97C276.98 429.29 278.15 424.06 281.07 420.55C283.813 417.395 285.35 413.37 285.41 409.19C285.41 408.33 285.41 407.48 285.3 406.64C284.08 393.55 282.87 380.4 283.53 367.27C284.19 354.14 286.8 340.94 292.86 329.27C296 323.22 300.06 317.56 302 311.03C305.12 300.46 302.24 289.03 297.59 279.03C293.96 271.21 289.12 263.76 282.36 258.4C269.8 248.45 251 247.3 237.25 255.53C227.11 261.59 220.17 271.78 214.54 282.17C210.5 289.76 206.24 296.19 206.35 304.85Z" fill="black"/>
<path d="M204.07 304.85C208 307.5 209.37 312.62 209.87 317.34C212 337.41 203.72 357.28 204.27 377.45C204.71 393.45 210.69 408.81 216.59 423.74C226.65 449.21 231.88 476.87 233.92 504.18C235.96 531.49 238.92 559.93 253.58 583.03C256.91 588.26 260.78 593.12 264.05 598.38C267.46 603.88 270.18 609.78 273.2 615.5C282.101 632.392 293.571 647.798 307.2 661.17C311.2 665.07 315.45 668.85 320.55 671.1C323.836 672.526 327.375 673.28 330.958 673.318C334.54 673.356 338.094 672.676 341.41 671.32C348.24 668.49 354 662.11 354.28 654.71C354.54 648.09 350.59 642.12 346.62 636.82C333.198 618.864 317.765 602.504 300.62 588.06C297.51 585.44 294.22 582.73 292.62 578.99C290.8 574.68 291.55 569.79 291.32 565.12C290.95 557.67 288.05 550.6 286.32 543.34C279.32 513.85 291.76 481.65 281.64 453.08C279.39 446.73 276.04 440.66 275.25 433.97C274.7 429.29 275.86 424.06 278.78 420.55C281.574 417.416 283.156 413.387 283.24 409.19C283.24 408.33 283.24 407.48 283.13 406.64C281.92 393.55 280.71 380.4 281.37 367.27C282.03 354.14 284.64 340.94 290.7 329.27C293.84 323.22 297.9 317.56 299.84 311.03C302.96 300.46 300.08 289.03 295.43 279.03C291.79 271.21 286.96 263.76 280.2 258.4C267.64 248.45 248.84 247.3 235.09 255.53C224.95 261.59 218.01 271.78 212.38 282.17C208.24 289.76 204 296.19 204.07 304.85Z" fill="#E1A4AD"/>
<path d="M102.94 565.98L103.8 566.24Z" fill="#464353"/>
<path d="M278.09 610.6C278.053 610.263 277.993 609.929 277.91 609.6Z" fill="#464353"/>
<path d="M63.6901 541.98C60.8101 538.65 56.37 537.16 52.1 536.05C45.2191 534.271 38.1898 533.126 31.1 532.63C26.6991 532.156 22.2496 532.43 17.94 533.44C13.68 534.61 9.64003 537.15 7.48003 541C5.57003 544.4 5.27007 548.44 5.02007 552.33C4.50007 560.33 4.02002 568.33 5.34002 576.21C6.19002 581.21 7.77999 586.05 8.80999 591.01C12.15 607.27 9.2501 624.1 9.5501 640.7C9.6201 644.24 9.85002 647.87 11.34 651.08C12.93 654.49 15.79 657.08 18.58 659.64C21.65 662.41 24.77 665.2 28.47 667.05C33.95 669.8 40.2601 670.26 46.3901 670.45C50.1201 670.56 53.9601 670.57 57.3901 669.2C60.8201 667.83 63.91 664.75 64.16 661.02C64.56 654.69 57.4201 650.55 55.3801 644.55C53.7601 639.77 55.62 634.49 58.2 630.14C62.3374 623.206 68.242 617.494 75.3101 613.59C77.9301 612.15 80.72 610.94 82.9 608.91C85.08 606.88 86.5601 603.73 85.6301 600.91C84.5201 597.5 80.55 595.91 76.98 595.57C73.41 595.23 69.64 595.49 66.43 593.9C63.57 592.49 61.58 589.77 60.21 586.9C57.2945 580.774 56.8889 573.751 59.08 567.33C59.9471 564.888 61.2034 562.601 62.8 560.56C64.3 558.64 67.3801 557.02 68.4501 554.92C70.3501 551.14 66.2401 544.98 63.6901 541.98Z" fill="#FFE403"/>
<path opacity="0.06" d="M121.8 397.06C138.32 382.46 161.35 378.49 182.95 374.06C194.077 371.787 205.15 369.253 216.17 366.46C223.41 364.62 230.67 362.66 238.17 362.15C245.67 361.64 253.39 362.69 259.81 366.51C266.23 370.33 271.07 377.25 271.11 384.72C271.11 387.72 270.4 390.66 270.62 393.63C270.97 398.41 273.62 402.63 275.43 407.1C278.198 414.166 278.623 421.935 276.64 429.26C273.44 440.93 264.22 451.21 265.02 463.26C266.35 483.43 265.94 504.51 261.8 524.26C257.66 544.01 252.49 563.85 252.61 584.06C252.73 604.27 258.85 625.52 273.94 638.98C263.716 648.579 251.212 655.412 237.61 658.83C225.98 661.74 212.15 661.45 203.87 652.78C201.95 650.78 200.36 648.11 200.76 645.36C201.173 643.625 201.901 641.981 202.91 640.51C208.6 630.32 207.91 617.76 205.39 606.38C202.87 595 198.56 583.94 197.47 572.32C196.67 563.89 197.57 555.32 195.96 547C194.72 540.63 192.04 534.63 190.43 528.34C185.68 509.68 190.67 490.09 195.63 471.5C191.48 481.05 183.63 488.5 175.51 494.98C163.19 504.8 148.29 513.47 132.63 511.73C118.69 510.17 106.82 500.48 98.6301 489.11C98.5601 475.96 94.0001 463.53 94.8101 450.41C95.3327 444.647 96.3633 438.942 97.8902 433.36C99.4202 427.12 100.99 420.82 103.89 415.09C107.72 407.48 115.42 402.69 121.8 397.06Z" fill="black"/>
<path d="M118.38 397.06C134.9 382.46 157.92 378.49 179.53 374.06C190.657 371.787 201.727 369.253 212.74 366.46C219.98 364.62 227.25 362.66 234.74 362.15C242.23 361.64 249.95 362.69 256.37 366.51C262.79 370.33 267.64 377.25 267.67 384.72C267.67 387.72 266.97 390.66 267.19 393.63C267.53 398.41 270.24 402.63 272 407.1C274.765 414.167 275.186 421.936 273.2 429.26C270.01 440.93 260.79 451.21 261.58 463.26C262.92 483.43 262.51 504.51 258.37 524.26C254.23 544.01 249.06 563.85 249.18 584.06C249.3 604.27 255.46 625.45 270.56 638.89C260.334 648.488 247.831 655.32 234.23 658.74C222.6 661.65 208.76 661.36 200.49 652.69C198.57 650.69 196.98 648.02 197.38 645.27C197.793 643.535 198.521 641.891 199.53 640.42C205.22 630.23 204.53 617.67 202.01 606.29C199.49 594.91 195.18 583.85 194.08 572.23C193.29 563.8 194.19 555.23 192.57 546.91C191.34 540.54 188.65 534.54 187.05 528.25C182.3 509.59 187.28 490 192.25 471.41C188.1 480.96 180.25 488.41 172.12 494.89C159.8 504.71 144.91 513.38 129.25 511.64C115.31 510.08 103.44 500.39 95.25 489.02C95.19 475.87 90.63 463.44 91.44 450.32C91.9625 444.557 92.9932 438.852 94.52 433.27C96.04 427.03 97.62 420.73 100.52 415C104.24 407.48 112 402.69 118.38 397.06Z" fill="#E1A4AD"/>
<path d="M233.14 649.41C240.476 644.942 246.811 639.008 251.75 631.98C253.53 629.46 255.13 626.78 257.35 624.64C259.57 622.5 262.58 620.91 265.65 621.23C269.12 621.59 271.9 624.23 274.1 626.95C280 634.26 283.8 643.2 290.35 649.95C297.91 657.76 308.46 661.95 318.99 664.63C329.52 667.31 340.39 668.72 350.71 672.11C353.95 673.17 357.36 674.61 359.11 677.54C361.33 681.27 360.11 686.16 357.77 689.86C353.46 696.86 346.04 701.37 338.3 704.05C330.56 706.73 322.37 707.8 314.3 709.38C300.04 712.17 285.43 716.64 271.24 713.49C265.58 712.23 260.24 709.79 254.52 708.73C241.52 706.31 228.11 711.2 215.06 709.24C208.75 708.29 202.79 705.77 197.06 702.93C194.186 701.688 191.574 699.913 189.36 697.7C187.27 695.38 186.01 692.09 186.87 689.09C187.36 687.36 188.49 685.9 189.24 684.27C190.42 681.75 190.66 678.92 190.94 676.15C192.019 665.606 193.851 655.153 196.42 644.87C197.31 641.28 198.64 637.28 201.99 635.71C202.673 635.341 203.472 635.252 204.22 635.46C205.41 635.91 205.8 637.35 206.16 638.56C207.142 641.905 209.021 644.918 211.594 647.27C214.168 649.622 217.336 651.225 220.756 651.903C224.176 652.581 227.716 652.309 230.993 651.117C234.269 649.925 237.156 647.857 239.34 645.14" fill="#FFE403"/>
<path d="M14.7699 456.53C14.4699 465.86 14.2298 475.21 14.3398 484.53C14.3998 489.47 14.6099 494.62 16.9799 498.95C18.6699 502.06 21.3399 504.49 23.9799 506.87L40.4498 521.8C45.5598 526.43 51.0699 531.26 57.8799 532.41C65.6699 533.73 73.2799 529.94 80.7699 527.41C88.3125 524.869 96.2109 523.542 104.17 523.48C108.73 523.48 113.33 523.84 117.83 523.12C121.084 522.501 124.276 521.594 127.37 520.41L142.24 515.25C141.82 511.5 138.24 509.11 135.24 506.74C124.59 498.1 119.92 484.21 116.56 470.92C113.829 460.544 111.883 449.978 110.74 439.31C110.23 434.03 110 428.66 111.11 423.47C112.157 419.283 113.631 415.215 115.51 411.33L120.74 399.54C123.74 392.88 129.74 389.92 135.85 385.99C126.63 389.49 115.39 390.86 108.38 397.8C107.027 399.338 105.425 400.636 103.64 401.64C101.73 402.55 99.5598 402.64 97.4698 402.98C87.0598 404.54 78.2099 411.08 69.6099 417.13C59.0832 424.543 48.2632 431.507 37.1499 438.02C32.1499 440.96 26.9899 443.85 22.7799 447.86C18.5699 451.87 15.2699 457.21 14.9999 463.02" fill="#464353"/>
</svg>
