<svg width="182" height="288" viewBox="0 0 182 288" fill="none" xmlns="http://www.w3.org/2000/svg">
<g id="skateboard">
<g id="rightskateboard">
<path id="rightskateboard_2" d="M44.3821 163.638L122.382 264.638C122.382 264.638 138.382 294.638 163.382 285.638C188.382 276.638 150.382 249.638 150.382 249.638L74.3821 148.638C74.3821 148.638 64.3821 121.496 44.3821 127.067C24.3821 132.638 44.3821 163.638 44.3821 163.638Z" fill="#FFE403"/>
<g id="rightwheels">
<path id="Vector" d="M68.8821 209.138C73.8531 209.138 77.8821 205.108 77.8821 200.138C77.8821 195.167 73.8531 191.138 68.8821 191.138C63.9121 191.138 59.8821 195.167 59.8821 200.138C59.8821 205.108 63.9121 209.138 68.8821 209.138Z" fill="#3F3D56"/>
<path id="Vector_2" d="M136.882 287.138C141.853 287.138 145.882 283.108 145.882 278.138C145.882 273.167 141.853 269.138 136.882 269.138C131.912 269.138 127.882 273.167 127.882 278.138C127.882 283.108 131.912 287.138 136.882 287.138Z" fill="#3F3D56"/>
<path id="Vector_3" d="M45.8821 189.138C50.8531 189.138 54.8821 185.108 54.8821 180.138C54.8821 175.167 50.8531 171.138 45.8821 171.138C40.9121 171.138 36.8821 175.167 36.8821 180.138C36.8821 185.108 40.9121 189.138 45.8821 189.138Z" fill="#3F3D56"/>
<path id="Vector_4" d="M113.382 275.638C118.353 275.638 122.382 271.608 122.382 266.638C122.382 261.667 118.353 257.638 113.382 257.638C108.412 257.638 104.382 261.667 104.382 266.638C104.382 271.608 108.412 275.638 113.382 275.638Z" fill="#3F3D56"/>
</g>
</g>
<g id="Group">
<path id="Vector_5" d="M176.229 234.598L163.051 241.573L129.876 194.063L149.325 183.769L176.229 234.598Z" fill="#A0616A"/>
<path id="Vector_6" d="M130.923 258.199C130.879 259.107 131.843 261.452 132.268 262.256C133.576 264.726 136.638 265.668 139.108 264.361L179.918 242.758C181.603 241.866 182.246 239.777 181.354 238.091L180.454 236.392C180.454 236.392 179.77 230.217 172.282 226.124C172.282 226.124 169.725 233.786 157.92 230.154L153.461 227.235L143.363 248.008L134.825 253.967C132.957 255.27 131.035 255.924 130.923 258.199Z" fill="#2F2E41"/>
</g>
<g id="Group_2">
<path id="Vector_7" d="M111.229 149.598L98.051 156.573L64.876 109.063L84.325 98.769L111.229 149.598Z" fill="#A0616A"/>
<path id="Vector_8" d="M65.9228 173.199C65.8788 174.107 66.8428 176.452 67.2678 177.256C68.5758 179.726 71.6378 180.668 74.1078 179.361L114.918 157.758C116.603 156.866 117.246 154.777 116.354 153.091L115.454 151.392C115.454 151.392 114.77 145.217 107.282 141.124C107.282 141.124 104.725 148.786 92.9188 145.154L88.4598 142.235L78.3618 163.008L69.8249 168.967C67.9569 170.27 66.0348 170.924 65.9228 173.199Z" fill="#2F2E41"/>
</g>
<path id="Vector_9" d="M158.382 48.638L109.382 127.638L160.382 199.638L140.382 209.638C140.382 209.638 75.382 140.638 73.382 131.638C71.382 122.638 93.382 59.638 93.382 59.638H51.614L91.382 109.638L72.382 121.638L4.38197 55.638C4.38197 55.638 -3.61803 42.346 4.38197 37.492C12.382 32.638 84.118 0.638 84.118 0.638L158.382 48.638Z" fill="#2F2E41"/>
</g>
</svg>
