<svg width="590" height="663" viewBox="0 0 590 663" fill="none" xmlns="http://www.w3.org/2000/svg">
<path d="M291.354 227.934L317.201 197.407L330.872 208.983L331.34 226.89L291.354 227.934ZM330.661 649.676C315.453 665.7 290.135 666.361 274.112 651.153L12.9948 403.327C-3.02861 388.119 -3.68977 362.801 11.5181 346.778C26.7259 330.754 52.0439 330.093 68.0674 345.301L300.171 565.591L520.461 333.487C535.669 317.463 560.987 316.802 577.011 332.01C593.034 347.218 593.695 372.536 578.487 388.559L330.661 649.676ZM111.537 23.2731L317.201 197.407L265.506 258.462L59.8429 84.3278L111.537 23.2731ZM331.34 226.89L341.634 621.096L261.662 623.184L251.367 228.979L331.34 226.89Z" fill="black"/>
<path d="M85.6902 53.8004L197.949 137.285L310.207 220.77L301.623 508.662" stroke="#FFE403" stroke-width="80" stroke-linecap="round"/>
</svg>
