<svg width="590" height="663" viewBox="0 0 590 663" fill="none" xmlns="http://www.w3.org/2000/svg">
<path d="M298.881 227.934L273.033 197.407L259.362 208.983L258.894 226.89L298.881 227.934ZM259.573 649.676C274.781 665.7 300.099 666.361 316.123 651.153L577.24 403.327C593.263 388.119 593.924 362.801 578.716 346.778C563.508 330.754 538.19 330.093 522.167 345.301L290.063 565.591L69.7729 333.487C54.5651 317.463 29.2471 316.802 13.2237 332.01C-2.79979 347.218 -3.46095 372.536 11.7469 388.559L259.573 649.676ZM478.697 23.2731L273.033 197.407L324.728 258.462L530.391 84.3278L478.697 23.2731ZM258.894 226.89L248.6 621.096L328.573 623.184L338.867 228.979L258.894 226.89Z" fill="black"/>
<path d="M504.544 53.8004L392.286 137.285L280.027 220.77L288.612 508.662" stroke="#FFE403" stroke-width="80" stroke-linecap="round"/>
</svg>
