<svg width="435" height="334" viewBox="0 0 435 334" fill="none" xmlns="http://www.w3.org/2000/svg">
<path d="M429.28 90.8C428.8 124.5 400.37 151.15 366.67 151.15H361.98C357.837 151.135 353.852 152.743 350.88 155.63C348.622 157.742 347.051 160.484 346.37 163.5C346.052 164.718 345.894 165.972 345.9 167.23V226.72C345.928 238.156 342.665 249.358 336.5 258.99C327.67 272.77 322.5 288.54 322.5 304.9C322.498 308.71 321.737 312.482 320.262 315.994C318.786 319.507 316.626 322.691 313.907 325.36C311.188 328.029 307.964 330.129 304.424 331.539C300.885 332.949 297.099 333.639 293.29 333.57C277.53 333.28 265.17 319.73 265.17 303.96V289.08L257.36 290V304.9C257.357 308.711 256.594 312.482 255.118 315.995C253.641 319.508 251.48 322.692 248.76 325.361C246.04 328.029 242.816 330.13 239.276 331.539C235.735 332.949 231.95 333.639 228.14 333.57C212.38 333.28 200.03 319.73 200.03 303.96V296.43C192.21 299.69 147.91 299.69 135.61 296.54L132.27 296.28V304.9C132.268 308.71 131.507 312.482 130.032 315.994C128.556 319.507 126.396 322.691 123.677 325.36C120.958 328.029 117.734 330.129 114.194 331.539C110.655 332.949 106.869 333.639 103.06 333.57C87.29 333.28 74.94 319.73 74.94 303.96V291.59L72.33 291.35V304.9C72.3295 307.3 72.034 309.692 71.45 312.02C69.8371 318.273 66.1643 323.801 61.0243 327.711C55.8844 331.621 49.577 333.685 43.12 333.57C28.71 333.31 17.17 321.97 15.26 307.98C15.0979 306.653 15.011 305.317 15 303.98V241.71C14.9677 220.32 22.128 199.54 35.33 182.71C37.6185 179.733 38.8996 176.104 38.9877 172.35C39.0758 168.596 37.9663 164.911 35.82 161.83C21.23 140.46 -0.350023 104.4 0.359977 78.83C0.539977 71.43 2.56999 64.94 7.18999 59.91C7.46999 59.6 7.75998 59.29 8.04998 59C29.05 37 66.05 54.31 62.82 84.54C61.7395 94.6682 62.4915 104.908 65.04 114.77C66.4855 120.344 68.4473 125.77 70.9 130.98C73.3502 136.21 77.3858 140.534 82.4336 143.34C87.4815 146.146 93.285 147.29 99.02 146.61C102.919 146.139 106.843 145.905 110.77 145.91H231.24C238.307 145.897 245.193 143.672 250.932 139.547C256.671 135.422 260.975 129.604 263.24 122.91C264.46 119.399 265.076 115.707 265.06 111.99V18.28C265.059 15.8351 265.549 13.4149 266.502 11.1632C267.454 8.91158 268.85 6.87444 270.606 5.17289C272.361 3.47134 274.441 2.14013 276.722 1.25835C279.002 0.37658 281.436 -0.0377581 283.88 0.039986C286.268 0.110872 288.617 0.663884 290.786 1.66576C292.954 2.66764 294.898 4.0977 296.5 5.86999C299.759 9.47157 301.569 14.1527 301.58 19.01C301.58 20.2794 301.83 21.5364 302.316 22.709C302.802 23.8817 303.515 24.947 304.413 25.8442C305.311 26.7413 306.377 27.4527 307.55 27.9375C308.723 28.4224 309.981 28.6713 311.25 28.67H368.03C376.148 28.6664 384.185 30.2777 391.675 33.41C399.164 36.5422 405.955 41.1329 411.654 46.9149C417.352 52.6968 421.843 59.5545 424.866 67.0887C427.888 74.6228 429.382 82.683 429.26 90.8H429.28Z" fill="#FFE403"/>
<path d="M71.39 312.02C69.777 318.273 66.1043 323.801 60.9643 327.711C55.8243 331.621 49.517 333.685 43.0599 333.57C28.6499 333.31 17.11 321.97 15.2 307.98C32.56 303.28 56.61 300.06 71.39 312.02Z" fill="black"/>
<path d="M131.32 312.02C129.711 318.273 126.04 323.802 120.902 327.712C115.763 331.622 109.456 333.686 103 333.57C88.59 333.31 77 321.97 75.14 307.98C92.5 303.28 116.55 300.06 131.32 312.02Z" fill="black"/>
<path d="M256.41 312.02C254.799 318.274 251.126 323.803 245.986 327.713C240.846 331.623 234.537 333.686 228.08 333.57C213.67 333.31 202.08 321.97 200.23 307.98C217.58 303.28 241.63 300.06 256.41 312.02Z" fill="black"/>
<path d="M321.56 312.02C319.947 318.273 316.274 323.801 311.134 327.711C305.994 331.621 299.687 333.685 293.23 333.57C278.82 333.31 267.23 321.97 265.37 307.98C282.73 303.28 306.78 300.06 321.56 312.02Z" fill="black"/>
<path d="M64.9801 114.8C44.7301 106.67 19.98 91.8 0.300049 78.86C0.480049 71.46 2.51007 64.97 7.13007 59.94C7.41007 59.63 7.70005 59.32 7.99005 59.03C28.9901 37.03 65.9901 54.34 62.7601 84.57C61.6796 94.6982 62.4316 104.938 64.9801 114.8V114.8Z" fill="black"/>
<path d="M89.5 146.12C89.5 146.12 145.25 216.3 236.5 145.94Z" fill="black"/>
<path d="M265.11 15.64C265.11 15.64 298.99 59.94 265.11 114.64Z" fill="black"/>
<path d="M345.9 166.79C345.9 166.79 316.06 203.86 345.5 233.28Z" fill="black"/>
<path opacity="0.1" d="M348.5 158.97C346.29 161.05 347.04 163.06 346.37 166.11L249.5 140.73C254.71 136.73 261.17 131.95 263.31 125.59C274.91 134.6 297.87 149.72 348.5 158.97Z" fill="black"/>
<path d="M350.88 155.63C348.622 157.742 347.051 160.484 346.37 163.5L251.93 138.88C257.203 134.818 261.156 129.285 263.29 122.98C274.91 132 300.24 146.38 350.88 155.63Z" fill="black"/>
<path opacity="0.1" d="M266.84 128.19C266.84 128.19 296.39 150.41 345.9 157.28Z" fill="black"/>
<path d="M266.84 125.59C266.84 125.59 296.39 147.81 345.9 154.69Z" fill="#FFE403"/>
<path opacity="0.1" d="M340.69 127.7C340.69 127.7 390.2 143.33 403.23 93.82L340.69 127.7Z" fill="black"/>
<path d="M340.69 125.09C340.69 125.09 390.2 140.73 403.23 91.22L340.69 125.09Z" fill="black"/>
<path d="M429.29 93.82C432.167 93.82 434.5 89.7368 434.5 84.7C434.5 79.6632 432.167 75.58 429.29 75.58C426.413 75.58 424.08 79.6632 424.08 84.7C424.08 89.7368 426.413 93.82 429.29 93.82Z" fill="black"/>
<path opacity="0.1" d="M34.5001 272.33L44.9201 188.94C44.9201 188.94 13.6401 238.45 34.5001 272.33Z" fill="black"/>
<path d="M47.5 188.94C47.5 188.94 16.23 238.45 37.07 272.33L47.5 188.94Z" fill="black"/>
</svg>
