<svg width="1025" height="785" viewBox="0 0 1025 785" fill="none" xmlns="http://www.w3.org/2000/svg">
<path d="M966.12 335.07H669.22V454.84H966.12V335.07Z" fill="#FFE403"/>
<path d="M593.73 278.98L635.9 373.45L719.41 368.39L722.78 329.59L725.31 284.04L607.23 275.6L593.73 278.98Z" fill="black"/>
<path d="M593.73 278.98C593.73 278.98 609.73 263.8 629.16 260.42C648.59 257.04 713.51 263.79 713.51 263.79L722.79 279.79L721.05 287.41L593.73 278.98Z" fill="#FFE403"/>
<path d="M752.72 327.48H453.29V415.2H752.72V327.48Z" fill="black"/>
<path d="M530.04 395.8H233.14V515.57H530.04V395.8Z" fill="#FFE403"/>
<path d="M369.02 594.01C414.777 594.01 451.87 553.416 451.87 503.34C451.87 453.264 414.777 412.67 369.02 412.67C323.263 412.67 286.17 453.264 286.17 503.34C286.17 553.416 323.263 594.01 369.02 594.01Z" fill="black"/>
<path opacity="0.05" d="M369.02 594.01C414.777 594.01 451.87 553.416 451.87 503.34C451.87 453.264 414.777 412.67 369.02 412.67C323.263 412.67 286.17 453.264 286.17 503.34C286.17 553.416 323.263 594.01 369.02 594.01Z" fill="black"/>
<path d="M387.43 594.01C433.187 594.01 470.28 553.416 470.28 503.34C470.28 453.264 433.187 412.67 387.43 412.67C341.673 412.67 304.58 453.264 304.58 503.34C304.58 553.416 341.673 594.01 387.43 594.01Z" fill="black"/>
<path opacity="0.05" d="M385.59 540.62C405.925 540.62 422.41 524.135 422.41 503.8C422.41 483.465 405.925 466.98 385.59 466.98C365.255 466.98 348.77 483.465 348.77 503.8C348.77 524.135 365.255 540.62 385.59 540.62Z" fill="black"/>
<path d="M385.59 514.85C391.693 514.85 396.64 509.903 396.64 503.8C396.64 497.697 391.693 492.75 385.59 492.75C379.487 492.75 374.54 497.697 374.54 503.8C374.54 509.903 379.487 514.85 385.59 514.85Z" stroke="#FFE403" stroke-width="2" stroke-miterlimit="10"/>
<path d="M385.59 487.23C387.114 487.23 388.35 485.994 388.35 484.47C388.35 482.946 387.114 481.71 385.59 481.71C384.066 481.71 382.83 482.946 382.83 484.47C382.83 485.994 384.066 487.23 385.59 487.23Z" fill="#FFE403"/>
<path d="M402.467 491.914C403.635 490.934 403.787 489.193 402.807 488.026C401.827 486.858 400.086 486.706 398.919 487.686C397.751 488.665 397.599 490.406 398.579 491.574C399.558 492.742 401.299 492.894 402.467 491.914Z" fill="#FFE403"/>
<path d="M409.057 505.279C409.322 503.778 408.319 502.346 406.818 502.082C405.317 501.817 403.886 502.819 403.621 504.32C403.356 505.822 404.359 507.253 405.86 507.518C407.361 507.783 408.792 506.78 409.057 505.279Z" fill="#FFE403"/>
<path d="M399.828 521.154C401.149 520.392 401.601 518.704 400.839 517.384C400.077 516.063 398.389 515.611 397.068 516.373C395.748 517.136 395.296 518.824 396.058 520.144C396.82 521.464 398.508 521.916 399.828 521.154Z" fill="#FFE403"/>
<path d="M385.297 522.648C385.818 521.215 385.08 519.632 383.647 519.11C382.215 518.589 380.631 519.328 380.11 520.76C379.588 522.192 380.327 523.776 381.759 524.297C383.192 524.819 384.775 524.08 385.297 522.648Z" fill="#FFE403"/>
<path d="M371.268 514.124C372.7 513.603 373.438 512.019 372.917 510.586C372.396 509.154 370.812 508.416 369.38 508.937C367.947 509.458 367.209 511.042 367.73 512.474C368.251 513.907 369.835 514.645 371.268 514.124Z" fill="#FFE403"/>
<path d="M372.555 496.881C373.317 495.561 372.865 493.873 371.545 493.111C370.225 492.349 368.537 492.801 367.775 494.121C367.012 495.442 367.465 497.13 368.785 497.892C370.105 498.654 371.793 498.202 372.555 496.881Z" fill="#FFE403"/>
<path d="M982.74 433.27C979.91 452.81 972.04 474.2 972.04 474.2C972.093 472.867 972.127 471.55 972.14 470.25C972.14 468.57 972.14 466.91 972.14 465.25C971.14 411.39 941.79 378.16 922.86 362.25C917.94 358.057 912.648 354.322 907.05 351.09H958.5C958.5 351.09 978.74 392.42 982.96 412.66C984.18 418.34 983.84 425.67 982.74 433.27Z" fill="#FFE403"/>
<path opacity="0.05" d="M982.74 433.27C979.91 452.81 972.04 474.2 972.04 474.2C972.093 472.867 972.127 471.55 972.14 470.25C972.14 468.57 972.14 466.91 972.14 465.25C971.14 411.39 941.79 378.16 922.86 362.25C917.94 358.057 912.648 354.322 907.05 351.09H958.5C958.5 351.09 978.74 392.42 982.96 412.66C984.18 418.34 983.84 425.67 982.74 433.27Z" fill="black"/>
<path d="M895.02 503.98C929.819 503.98 958.03 473.106 958.03 435.02C958.03 396.934 929.819 366.06 895.02 366.06C860.221 366.06 832.01 396.934 832.01 435.02C832.01 473.106 860.221 503.98 895.02 503.98Z" fill="black"/>
<path opacity="0.05" d="M895.02 503.98C929.819 503.98 958.03 473.106 958.03 435.02C958.03 396.934 929.819 366.06 895.02 366.06C860.221 366.06 832.01 396.934 832.01 435.02C832.01 473.106 860.221 503.98 895.02 503.98Z" fill="black"/>
<path d="M909.02 503.98C943.819 503.98 972.03 473.106 972.03 435.02C972.03 396.934 943.819 366.06 909.02 366.06C874.221 366.06 846.01 396.934 846.01 435.02C846.01 473.106 874.221 503.98 909.02 503.98Z" fill="black"/>
<path opacity="0.05" d="M907.62 463.37C923.084 463.37 935.62 450.834 935.62 435.37C935.62 419.906 923.084 407.37 907.62 407.37C892.156 407.37 879.62 419.906 879.62 435.37C879.62 450.834 892.156 463.37 907.62 463.37Z" fill="black"/>
<path d="M907.62 443.77C912.259 443.77 916.02 440.009 916.02 435.37C916.02 430.731 912.259 426.97 907.62 426.97C902.981 426.97 899.22 430.731 899.22 435.37C899.22 440.009 902.981 443.77 907.62 443.77Z" stroke="#FFE403" stroke-width="2" stroke-miterlimit="10"/>
<path d="M907.62 422.77C908.78 422.77 909.72 421.83 909.72 420.67C909.72 419.51 908.78 418.57 907.62 418.57C906.46 418.57 905.52 419.51 905.52 420.67C905.52 421.83 906.46 422.77 907.62 422.77Z" fill="#FFE403"/>
<path d="M920.463 426.33C921.351 425.585 921.467 424.26 920.722 423.372C919.976 422.483 918.651 422.368 917.763 423.113C916.875 423.859 916.759 425.183 917.504 426.072C918.25 426.96 919.574 427.076 920.463 426.33Z" fill="#FFE403"/>
<path d="M925.467 436.504C925.668 435.361 924.906 434.272 923.763 434.071C922.621 433.869 921.532 434.632 921.331 435.774C921.129 436.917 921.892 438.006 923.034 438.207C924.176 438.408 925.265 437.646 925.467 436.504Z" fill="#FFE403"/>
<path d="M918.457 448.575C919.462 447.995 919.806 446.71 919.226 445.706C918.646 444.702 917.362 444.358 916.357 444.937C915.353 445.517 915.009 446.802 915.589 447.806C916.168 448.81 917.453 449.155 918.457 448.575Z" fill="#FFE403"/>
<path d="M907.402 449.708C907.799 448.618 907.237 447.413 906.147 447.016C905.058 446.619 903.852 447.181 903.456 448.271C903.059 449.361 903.621 450.566 904.711 450.963C905.801 451.359 907.006 450.798 907.402 449.708Z" fill="#FFE403"/>
<path d="M896.728 443.216C897.818 442.82 898.38 441.615 897.983 440.525C897.587 439.435 896.382 438.873 895.292 439.27C894.202 439.666 893.64 440.871 894.037 441.961C894.433 443.051 895.638 443.613 896.728 443.216Z" fill="#FFE403"/>
<path d="M897.72 430.106C898.3 429.102 897.956 427.817 896.951 427.237C895.947 426.657 894.662 427.002 894.082 428.006C893.503 429.01 893.847 430.295 894.851 430.875C895.856 431.454 897.14 431.11 897.72 430.106Z" fill="#FFE403"/>
<path d="M33.6701 512.62L26.05 452.73H116.3L162.69 494.06L139.92 547.2C139.92 547.2 48.0501 532.02 33.6701 512.62Z" fill="#FFE403"/>
<path opacity="0.05" d="M162.72 494.06L139.95 547.2C139.95 547.2 48.05 532.02 33.67 512.62L33.34 510.01L26.34 454.63L26.27 454.08L26.1 452.74H116.35L162.72 494.06Z" fill="black"/>
<path d="M536.38 268.86V288.26C536.38 288.26 489.74 326.26 478.64 362.11C476.703 367.931 475.971 374.087 476.49 380.2C480.71 419.84 355.05 348.14 355.05 348.14L360.64 345.42C389.53 331.49 521.37 268.1 536.38 268.86Z" fill="black"/>
<path d="M642.66 362.49C642.66 362.49 686.34 341.03 693.35 325.15C694.29 323.02 695.18 320.87 696.22 318.78C700.55 310.07 709.65 289.64 705.07 279.83C699.17 267.18 719.41 281.52 719.41 281.52L707.6 341.39L678.92 357.39L641.81 362.49" fill="#FFE403"/>
<path opacity="0.05" d="M642.66 362.49C642.66 362.49 686.34 341.03 693.35 325.15C694.29 323.02 695.18 320.87 696.22 318.78C700.55 310.07 709.65 289.64 705.07 279.83C699.17 267.18 719.41 281.52 719.41 281.52L707.6 341.39L678.92 357.39L641.81 362.49" fill="black"/>
<path opacity="0.05" d="M162.72 494.06L139.95 547.2C139.95 547.2 48.05 532.02 33.67 512.62L33.34 510.01C33.71 509.76 34.0999 509.5 34.5099 509.25C34.5099 509.25 62.3399 531.18 125.61 536.25C125.61 536.25 163.61 505.88 101.99 472.15C101.99 472.15 48.39 473.83 26.31 454.64L26.0699 454.44L26.24 454.09C26.3866 453.803 26.6233 453.357 26.95 452.75H116.32L162.72 494.06Z" fill="black"/>
<path opacity="0.05" d="M476.49 380.19C480.71 419.84 355.05 348.14 355.05 348.14L360.64 345.42C364.34 349.36 379.11 362.65 408.64 361.21C427.64 360.28 456.49 361.13 478.69 362.1C476.736 367.918 475.987 374.073 476.49 380.19V380.19Z" fill="black"/>
<path opacity="0.05" d="M530.05 395.8V515.57H474.89C478.53 487.71 476.43 447.1 441.05 423.82C427.854 415.195 412.532 410.382 396.775 409.912C381.017 409.443 365.436 413.335 351.75 421.16C328.56 434.4 302.63 461.32 286.15 515.57H233.15V395.8H530.05Z" fill="black"/>
<path opacity="0.05" d="M982.74 433.27C980.66 446.49 977.32 459.33 972.15 470.27C971.483 471.743 970.757 473.18 969.97 474.58C970.1 474.09 971.05 470.67 972.15 465.29C977.51 439.09 986.68 366.59 925.24 362.45C924.44 362.4 923.65 362.35 922.86 362.32C917.943 358.103 912.651 354.344 907.05 351.09H958.5C958.5 351.09 978.74 392.42 982.96 412.66C984.18 418.34 983.84 425.67 982.74 433.27Z" fill="black"/>
<path d="M971.64 473.76C972.44 470.87 1000.94 366.63 926.91 361.64C851.84 356.58 842.56 413.09 834.13 489.85C834.13 489.85 597.13 507.56 469.75 544.68C469.75 544.68 500.33 460.88 442.75 422.98C429.554 414.355 414.232 409.542 398.475 409.072C382.717 408.603 367.136 412.495 353.45 420.32C325.05 436.54 292.52 473.32 278.29 555.64H136.57C136.57 555.64 109.57 557.33 100.3 544.64C100.3 544.64 62.2999 545.48 38.7299 525.24C38.7299 525.24 13.4299 520.18 33.6699 507.53C33.6699 507.53 62.3499 529.46 125.61 534.53C125.61 534.53 163.61 504.16 101.99 470.43C101.99 470.43 47.9899 472.12 26.0799 452.72C26.0799 452.72 33.7699 436.81 51.3199 417.56C75.3241 391.155 105.91 371.599 139.95 360.89C162.887 353.799 186.794 350.351 210.8 350.67L359.67 346.03C359.67 346.03 374.05 364.59 408.59 362.9C443.13 361.21 510.65 365.43 510.65 365.43H511.32L650.24 359.14C654.229 358.577 658.175 357.742 662.05 356.64C682.19 351.17 720.39 334.58 713.5 288.25L931.96 301.75C940.194 302.128 948.373 303.284 956.39 305.2C967.61 308.08 977.87 313.34 974.98 322.84C969.08 342.24 985.1 344.77 985.1 344.77C985.1 344.77 985.44 347.36 985.86 351.86C987.86 373.08 991.79 436.88 971.64 473.76Z" fill="#FFE403"/>
<path opacity="0.05" d="M303.58 381.04C303.58 381.04 212.48 381.88 152.58 435.04H186.32C186.32 435.04 280.79 410.58 303.56 391.18L303.58 381.04Z" fill="black"/>
<path d="M302.73 380.19C302.73 380.19 211.63 381.03 151.73 434.19H185.47C185.47 434.19 279.94 409.73 302.71 390.33L302.73 380.19Z" fill="black"/>
<path opacity="0.05" d="M140.79 361.74V384.41L64.05 419.84L52.17 418.41C76.1714 392.007 106.754 372.45 140.79 361.74V361.74Z" fill="black"/>
<path d="M139.94 360.9V383.57L63.1899 418.99L51.3099 417.56C75.3153 391.159 105.901 371.606 139.94 360.9V360.9Z" fill="black"/>
<path opacity="0.05" d="M248.75 463.7C248.75 463.7 207.42 489 203.2 544.7H226.82C226.82 544.7 236.1 483.97 263.09 463.7H248.75Z" fill="black"/>
<path opacity="0.05" d="M737.13 465.39L522.88 490.69C522.88 490.69 508.71 400.49 511.33 365.4L650.25 359.11C654.235 358.556 658.177 357.731 662.05 356.64V365.01L766.64 339.71C766.64 339.71 784.36 365.85 737.13 465.39Z" fill="black"/>
<path d="M713.51 263.79C713.51 263.79 759.06 257.89 779.3 296.69L714.16 294.18L713.51 263.79Z" fill="#FFE403"/>
<path opacity="0.05" d="M776.14 310.29C774.35 315.9 775.7 322.07 786.07 326.34C794.7 329.9 804.82 325.78 807.77 316.93C809.49 311.77 808.31 305.93 799.01 301.18C789.71 296.43 779.27 300.49 776.14 310.29Z" fill="black"/>
<path d="M27.6801 465.37C27.6801 465.37 81.7401 493.37 120.54 482.77" stroke="#FFE403" stroke-miterlimit="10"/>
<path d="M29.59 480.49C29.59 480.49 64.52 507.43 135.12 501.17" stroke="#FFE403" stroke-miterlimit="10"/>
<path d="M31.2 493.18C31.2 493.18 65.85 523.25 137.05 513.72" stroke="#FFE403" stroke-miterlimit="10"/>
<path opacity="0.05" d="M776.69 292.16C776.69 292.16 748.51 316.49 722.79 327.49C722.79 327.49 761.85 334.44 776.69 292.16Z" fill="black"/>
<path opacity="0.1" d="M478.15 363.77C478.15 363.77 611.87 376.4 662.47 364.59C662.47 364.59 665.17 366.38 649.06 359.16L478.15 363.77Z" fill="black"/>
<path opacity="0.05" d="M985.87 351.86C977.54 346.39 964.33 335.04 966.13 322.41C967.03 316.08 962.55 310.16 956.4 305.19C967.62 308.07 977.88 313.33 974.99 322.83C969.09 342.23 985.11 344.76 985.11 344.76C985.11 344.76 985.44 347.36 985.87 351.86Z" fill="black"/>
</svg>
