<svg width="360" height="497" viewBox="0 0 360 497" fill="none" xmlns="http://www.w3.org/2000/svg">
<path d="M359.5 497H356.5C356.5 290.5 279.117 122.5 184 122.5V119.5C231.133 119.5 275.322 158.897 308.427 230.435C341.362 301.604 359.5 396.272 359.5 497Z" fill="#3F3D56"/>
<path d="M119 31.5C119 54.9721 129.297 85 142 85C154.703 85 165 54.9721 165 31.5C165 8.0279 154.703 0 142 0C129.297 0 119 8.0279 119 31.5Z" fill="#FFE400"/>
<path d="M28.7351 131.631C51.9516 135.085 83.168 129.319 85.0373 116.754C86.9066 104.19 58.721 89.5858 35.5045 86.1316C12.2879 82.6775 2.83202 91.6814 0.96271 104.246C-0.9066 116.81 5.51853 128.177 28.7351 131.631Z" fill="#FFE400"/>
<path d="M131.622 220.924C139.925 198.97 140.914 167.241 129.033 162.748C117.152 158.254 96.8985 182.699 88.596 204.653C80.2935 226.608 87.0856 237.759 98.967 242.252C110.848 246.746 123.32 242.879 131.622 220.924Z" fill="#FFE400"/>
<path d="M132 150C148.016 150 161 137.016 161 121C161 104.984 148.016 92 132 92C115.984 92 103 104.984 103 121C103 137.016 115.984 150 132 150Z" fill="#121112"/>
</svg>
